<?xml version="1.0" ?><svg width="24px" height="24px" viewBox="0 0 24 24" data-name="016_FOOD" id="_016_FOOD" xmlns="http://www.w3.org/2000/svg"><defs><style>.cls-1{fill:#333;}</style></defs><path class="cls-1" d="M9.75,22A7.71,7.71,0,0,1,4.29,8.8L8.8,4.29a7.7,7.7,0,0,1,12.53,2.4,1,1,0,1,1-1.83.79,5.7,5.7,0,0,0-9.28-1.77L5.71,10.22a5.71,5.71,0,1,0,8.07,8.07l4.51-4.51a5.68,5.68,0,0,0,1.58-3A1,1,0,0,1,21,10a1,1,0,0,1,.8,1.17,7.69,7.69,0,0,1-2.12,4L15.2,19.71A7.69,7.69,0,0,1,9.75,22Z"/><path class="cls-1" d="M19.5,14.5a1,1,0,0,1-.92-.62C17.19,10.55,13.21,7,10.16,5.5A1,1,0,1,1,11,3.7c3.34,1.65,7.76,5.51,9.38,9.42a1,1,0,0,1-.54,1.3A.84.84,0,0,1,19.5,14.5Z"/><path class="cls-1" d="M16.25,18.07a1,1,0,0,1-.93-.62C13.87,14,9.69,10.23,6.49,8.65a1,1,0,1,1,.88-1.79c3.48,1.72,8.1,5.75,9.8,9.83a1,1,0,0,1-.54,1.3A.9.9,0,0,1,16.25,18.07Z"/><path class="cls-1" d="M12.35,21a1,1,0,0,1-.92-.62c-1.32-3.15-5.09-6.5-8-7.93a1,1,0,1,1,.88-1.8c3.18,1.57,7.38,5.25,8.93,9a1,1,0,0,1-.54,1.3A.84.84,0,0,1,12.35,21Z"/></svg>