<?xml version="1.0" encoding="iso-8859-1"?>
<!-- Generator: Adobe Illustrator 19.0.0, SVG Export Plug-In . SVG Version: 6.00 Build 0)  -->
<svg version="1.1" id="Layer_1" xmlns="http://www.w3.org/2000/svg" xmlns:xlink="http://www.w3.org/1999/xlink" x="0px" y="0px"
	 viewBox="0 0 512 512" style="enable-background:new 0 0 512 512;" xml:space="preserve">
<g>
	<g>
		<path d="M432.89,83.145H272.708V51.992l87.168-19.371L352.626,0L239.291,25.185v57.96H79.11l-8.354,100.252h24.285L106.18,512
			h299.641l11.139-328.603h24.284L432.89,83.145z M128.475,183.397h110.816v40.723c-0.144-0.067-0.284-0.131-0.431-0.198
			c-6.861-3.167-15.399-7.108-31.136-7.108c-15.736,0-24.274,3.941-31.135,7.108c-5.26,2.427-8.735,4.031-17.132,4.031
			s-11.871-1.604-17.131-4.031c-3.52-1.625-7.492-3.451-12.642-4.847L128.475,183.397z M373.517,478.583H138.482l-7.565-223.135
			c6.456,2.885,14.723,5.923,28.539,5.923c15.737,0,24.275-3.941,31.136-7.108c5.26-2.427,8.734-4.031,17.131-4.031
			c8.397,0,11.872,1.604,17.132,4.031c3.92,1.809,8.392,3.867,14.435,5.303v180.03h33.417V259.563
			c6.035-1.436,10.504-3.492,14.419-5.3c5.26-2.427,8.735-4.031,17.132-4.031c8.399,0,11.874,1.604,17.136,4.032
			c6.861,3.167,15.4,7.107,31.137,7.107c13.824,0,22.091-3.04,28.548-5.925L373.517,478.583z M382.314,219.075
			c-5.151,1.396-9.124,3.221-12.645,4.847c-5.262,2.428-8.737,4.032-17.136,4.032c-8.398,0-11.873-1.604-17.135-4.032
			c-6.861-3.167-15.4-7.107-31.138-7.107c-15.737,0-24.275,3.941-31.136,7.108c-0.141,0.066-0.276,0.127-0.415,0.192v-40.717
			h110.815L382.314,219.075z M107.072,149.98l2.785-33.417h292.286l2.785,33.417H107.072z"/>
	</g>
</g>
<g>
</g>
<g>
</g>
<g>
</g>
<g>
</g>
<g>
</g>
<g>
</g>
<g>
</g>
<g>
</g>
<g>
</g>
<g>
</g>
<g>
</g>
<g>
</g>
<g>
</g>
<g>
</g>
<g>
</g>
</svg>
