<?xml version="1.0" encoding="iso-8859-1"?>
<!-- Generator: Adobe Illustrator 16.0.0, SVG Export Plug-In . SVG Version: 6.00 Build 0)  -->
<!DOCTYPE svg PUBLIC "-//W3C//DTD SVG 1.1//EN" "http://www.w3.org/Graphics/SVG/1.1/DTD/svg11.dtd">
<svg version="1.1" id="Capa_1" xmlns="http://www.w3.org/2000/svg" xmlns:xlink="http://www.w3.org/1999/xlink" x="0px" y="0px"
	 width="235.503px" height="235.503px" viewBox="0 0 235.503 235.503" style="enable-background:new 0 0 235.503 235.503;"
	 xml:space="preserve">
<g>
	<g>
		<path d="M202.127,124.088c-1.395-0.581-2.974-0.276-4.048,0.813l-6.636,6.624V83.959c0-13.312-7.923-25.503-19.934-31.095V20.1
			c0.461-0.607,0.865-1.274,0.865-2.098V3.723c0-2.058-1.654-3.723-3.719-3.723h-0.865h-21.443h-0.89
			c-2.052,0-3.711,1.665-3.711,3.723v14.279c0,0.832,0.417,1.523,0.882,2.136v32.719c-12.027,5.574-19.932,17.761-19.932,31.096
			v43.098l-2.174-2.164c-0.675-0.674-1.701-0.982-2.717-1.01V95.72c0-5.252-2.347-9.883-5.941-13.171
			c3.484-2.005,5.941-5.624,5.941-9.916c0-6.376-5.202-11.582-11.578-11.582H54.094c-6.398,0-11.604,5.2-11.604,11.582
			c0,4.292,2.457,7.902,5.943,9.908c-3.597,3.296-5.943,7.927-5.943,13.179v34.228l-5.071-5.069
			c-1.076-1.078-2.659-1.387-4.051-0.806c-1.387,0.553-2.292,1.903-2.292,3.43v104.27c0,2.06,1.665,3.731,3.715,3.731h165.765
			c2.048,0,3.703-1.655,3.719-3.715l0.152-104.286C204.427,126.012,203.509,124.649,202.127,124.088z M196.853,228.093H38.509
			v-91.622l3.99,3.991l3.715,3.728l3.711,3.711l2.829,2.837c1.395,1.379,3.859,1.379,5.25,0l18.174-18.186l18.174,18.186
			c1.395,1.379,3.863,1.379,5.251,0l10.764-10.78l3.713-3.727l3.643-3.631l0.068,0.076l4.907,4.89l7.42,7.413l4.793,4.785
			l0.949,0.95c1.395,1.426,3.863,1.382,5.246,0l0.966-0.95l17.216-17.248l17.236,17.248l0.949,0.95c1.395,1.382,3.863,1.382,5.246,0
			l0.949-0.95h0.321v-0.309l7.43-7.45l5.534-5.534L196.853,228.093z M49.917,72.633c0-2.292,1.87-4.144,4.17-4.144h52.132
			c2.296,0,4.154,1.851,4.154,4.144c0,2.292-1.857,4.155-4.154,4.155H54.086C51.794,76.794,49.917,74.925,49.917,72.633z
			 M60.492,85.148h39.321c5.827,0,10.568,4.741,10.568,10.58v10.866H49.925V95.728C49.917,89.889,54.649,85.148,60.492,85.148z
			 M49.917,114.003h60.456v15.443l-13.393,13.396l-17.953-17.965c-1.396-1.387-4.294-1.387-5.692,0l-17.959,17.965l-5.458-5.454
			V114.003z M150.059,7.418h14.029v6.862h-14.029V7.418z M130.125,83.943c0-11.122,7.037-21.231,17.513-25.148
			c1.471-0.545,2.421-1.925,2.421-3.48V21.716h14.029v33.598c0,1.555,0.966,2.936,2.408,3.473
			c10.488,3.939,17.525,14.04,17.525,25.156v4.178h-53.896V83.943z M130.125,95.555h53.896v43.401l-3.896,3.887l-17.953-17.965
			c-1.411-1.387-4.341-1.387-5.719,0l-17.941,17.965l-8.363-8.367v-38.92H130.125z"/>
		<path d="M175.971,163.81h-0.017c-2.052,0-3.711,1.655-3.711,3.695l-0.028,15.625l-0.016,7.409l-0.048,17.833H63.255v-17.833
			v-3.723v-3.711v-15.609c0-2.039-1.663-3.71-3.713-3.71c-2.048,0-3.715,1.671-3.715,3.71v14.399v3.971v3.723v22.51
			c0,2.04,1.667,3.72,3.715,3.72h116.32c2.048,0,3.702-1.655,3.719-3.72l0.048-21.56l0.012-7.409l0.057-15.598
			C179.681,165.48,178.01,163.81,175.971,163.81z"/>
	</g>
</g>
<g>
</g>
<g>
</g>
<g>
</g>
<g>
</g>
<g>
</g>
<g>
</g>
<g>
</g>
<g>
</g>
<g>
</g>
<g>
</g>
<g>
</g>
<g>
</g>
<g>
</g>
<g>
</g>
<g>
</g>
</svg>
