<?xml version="1.0" encoding="utf-8"?>
<!-- Uploaded to SVGRepo https://www.svgrepo.com -->
<svg version="1.2" baseProfile="tiny" id="Layer_1" xmlns="http://www.w3.org/2000/svg" xmlns:xlink="http://www.w3.org/1999/xlink"
	 x="0px" y="0px" viewBox="-205 51 256 256" xml:space="preserve">
<path d="M5.5,190.2c-13.2,3.6-25.8-3.1-23.9-12.7c1-4.8,6-9.2,12.6-11.1c13.2-3.6,25.8,3.1,23.9,12.7C17.2,184,12.1,188.4,5.5,190.2
	z M-105.3,223.7c-9.9,1.5-16.9,9.6-15.6,18.1c1.3,8.5,10.4,14.2,20.3,12.7c9.9-1.5,16.9-9.6,15.6-18.1
	C-86.3,227.9-95.4,222.2-105.3,223.7z M-29.6,218.5c-6.8,0.8-12.4,5.3-13.4,10.8c-1.7,8.8,7.6,16.2,18.5,14.9
	c6.8-0.8,12.4-5.3,13.4-10.8C-9.5,224.6-18.7,217.1-29.6,218.5z M-160.6,234c-4.9,0.8-8.9,4.8-9.7,9.7c-1.2,7.9,5.5,14.6,13.4,13.4
	c4.9-0.8,8.9-4.8,9.7-9.7C-146,239.5-152.7,232.8-160.6,234z M-114.3,207.6c4.8-1.2,8.4-5,8.7-9.3c0.5-6.8-6.8-11.8-14.6-9.9
	c-4.8,1.2-8.4,5-8.7,9.3C-129.3,204.5-122,209.4-114.3,207.6z M32.9,272c-0.7,1.8-2.3,3-4.2,3.2l-224.5,26c-0.2,0-0.4,0-0.6,0
	c-1.3,0-2.5-0.5-3.5-1.3c-1.1-1-1.7-2.4-1.7-3.9v-12.7v-0.2c0,0,0,0,0,0c0.1-3.1,2.7-5.6,5.8-5.6c0,0,0,0,0,0v0
	c4.6,0,8.3-3.7,8.3-8.3c0-4.4-3.4-8-7.8-8.2c-0.2,0-0.4,0.1-0.5,0.1c-3.2,0-5.8-2.6-5.8-5.7c0,0,0,0,0,0v-0.1v-23.7
	c0-1.4,0.6-2.8,1.6-3.8c0.9-0.8,2-1.3,3.2-1.4c0.5-0.1,0.9-0.2,1.4-0.2c6.8,0,12.3-5.5,12.3-12.3c0-5.4-3.5-9.9-8.3-11.6l0,0.3
	c-1.3,0-2.7,0.1-4,0.4c-1.5,0.3-3.1-0.1-4.3-1.1c-1.2-1-1.9-2.5-1.9-4v-23.6c0-1.9,1.1-3.6,2.7-4.5L-71.8,60
	c75,0,105.3,52.1,107.4,56c0.4,0.4,0.8,0.9,1.1,1.5C38,120.1,62,200.6,32.9,272z M29.8,248.9c-0.6,0.2-1.2,0.3-1.7,0.4
	c-8.8,1.3-16.2-6.1-14.9-14.9c0.8-5.5,5.3-9.9,10.8-10.8c4-0.6,7.7,0.6,10.5,3c6.9-45.7-1.1-89.9-5.4-100.9l-92.6,22.1
	c4.6,3.8,7.5,9.5,7.5,15.9c0,12.2-10.6,22-23.1,20.6c-9.3-1-16.9-8.4-18.2-17.7c-0.6-4,0-7.8,1.5-11.2l-95.1,22.7v13.2
	c10.6,1.9,18.6,11.2,18.6,22.3c0,11.1-8,20.4-18.6,22.3v0.4v15.2c0.2,0.3,0.4,0.6,0.6,1c7.1,2.2,12.2,8.8,12.2,16.6
	c0,7.7-5.1,14.3-12.1,16.5c-0.2,0.4-0.4,0.8-0.7,1.1v3.3l215.6-25C26.5,259.9,28.3,254.4,29.8,248.9z M-65.5,253.1
	c-4.9,0-8.9,4-8.9,8.9c0,4.9,4,8.9,8.9,8.9c4.9,0,8.9-4,8.9-8.9C-56.7,257.1-60.6,253.1-65.5,253.1z"/>
</svg>
