<?xml version="1.0" encoding="iso-8859-1"?>
<!-- Generator: Adobe Illustrator 19.0.0, SVG Export Plug-In . SVG Version: 6.00 Build 0)  -->
<svg version="1.1" id="Layer_1" xmlns="http://www.w3.org/2000/svg" xmlns:xlink="http://www.w3.org/1999/xlink" x="0px" y="0px"
	 viewBox="0 0 480 480" style="enable-background:new 0 0 480 480;" xml:space="preserve">
<g id="XMLID_860_">
	<g>
		<path d="M470,320h-21.057C461.931,307.285,470,289.567,470,270c0-13.812-9.384-25.474-22.109-28.947
			C449.252,237.631,450,233.901,450,230s-0.748-7.631-2.109-11.053C460.616,215.474,470,203.812,470,190c0-38.599-31.401-70-70-70
			h-61.714c1.109-3.129,1.714-6.495,1.714-10c0-3.901-0.748-7.631-2.109-11.053C350.616,95.474,360,83.812,360,70
			c0-38.599-31.401-70-70-70H190c-38.599,0-70,31.401-70,70c0,13.812,9.384,25.474,22.109,28.947
			C140.748,102.369,140,106.099,140,110c0,3.505,0.604,6.871,1.714,10H80c-38.599,0-70,31.401-70,70
			c0,13.812,9.384,25.474,22.109,28.947C30.748,222.369,30,226.099,30,230s0.748,7.631,2.109,11.053
			C19.384,244.526,10,256.188,10,270c0,19.567,8.069,37.285,21.057,50H10c-5.522,0-10,4.478-10,10c0,5.522,4.478,10,10,10h220v80
			h-90c-27.57,0-50,22.43-50,50c0,5.522,4.478,10,10,10h280c5.522,0,10-4.478,10-10c0-27.57-22.43-50-50-50h-90v-80h220
			c5.522,0,10-4.478,10-10C480,324.478,475.522,320,470,320z M400,140c27.57,0,50,22.43,50,50c0,5.514-4.486,10-10,10h-20H260
			c-5.514,0-10-4.486-10-10c0-27.57,22.43-50,50-50H400z M430,230c0,5.514-4.486,10-10,10H280c-5.514,0-10-4.486-10-10
			c0-5.514,4.486-10,10-10h140C425.514,220,430,224.486,430,230z M252.109,241.053c-4.558,1.244-8.687,3.538-12.109,6.604
			c-3.423-3.066-7.552-5.36-12.109-6.604C229.252,237.631,230,233.901,230,230s-0.748-7.631-2.109-11.053
			c4.558-1.244,8.687-3.538,12.109-6.604c3.423,3.066,7.552,5.36,12.109,6.604C250.748,222.369,250,226.099,250,230
			S250.748,237.631,252.109,241.053z M251.057,140c-4.248,4.159-7.971,8.855-11.057,13.976c-3.086-5.12-6.809-9.816-11.057-13.976
			H251.057z M170,120c-5.514,0-10-4.486-10-10s4.486-10,10-10h140c5.514,0,10,4.486,10,10s-4.486,10-10,10h-10H170z M140,70
			c0-27.57,22.43-50,50-50h100c27.57,0,50,22.43,50,50c0,5.514-4.486,10-10,10h-20H150C144.486,80,140,75.514,140,70z M30,190
			c0-27.57,22.43-50,50-50h100c27.57,0,50,22.43,50,50c0,5.514-4.486,10-10,10h-20H40C34.486,200,30,195.514,30,190z M210,230
			c0,5.514-4.486,10-10,10H60c-5.514,0-10-4.486-10-10c0-5.514,4.486-10,10-10h140C205.514,220,210,224.486,210,230z M180,320H80
			c-27.57,0-50-22.43-50-50c0-5.514,4.486-10,10-10h180c5.514,0,10,4.486,10,10C230,297.57,207.57,320,180,320z M340,440
			c13.037,0,24.159,8.359,28.286,20H111.714c4.127-11.641,15.249-20,28.286-20H340z M240,320h-11.057
			c4.248-4.159,7.971-8.855,11.057-13.976c3.086,5.12,6.809,9.816,11.057,13.976H240z M400,320H300c-27.57,0-50-22.43-50-50
			c0-5.514,4.486-10,10-10h180c5.514,0,10,4.486,10,10C450,297.57,427.57,320,400,320z"/>
	</g>
</g>
<g>
</g>
<g>
</g>
<g>
</g>
<g>
</g>
<g>
</g>
<g>
</g>
<g>
</g>
<g>
</g>
<g>
</g>
<g>
</g>
<g>
</g>
<g>
</g>
<g>
</g>
<g>
</g>
<g>
</g>
</svg>
