<?xml version="1.0" encoding="iso-8859-1"?>
<!-- Generator: Adobe Illustrator 18.0.0, SVG Export Plug-In . SVG Version: 6.00 Build 0)  -->
<!DOCTYPE svg PUBLIC "-//W3C//DTD SVG 1.1//EN" "http://www.w3.org/Graphics/SVG/1.1/DTD/svg11.dtd">
<svg version="1.1" id="Capa_1" xmlns="http://www.w3.org/2000/svg" xmlns:xlink="http://www.w3.org/1999/xlink" x="0px" y="0px"
	 viewBox="0 0 46.013 46.013" style="enable-background:new 0 0 46.013 46.013;" xml:space="preserve">
<path d="M44.379,2.412c-0.032-0.121-0.061-0.228-0.084-0.318c0.238-0.814-0.061-1.322-0.27-1.56
	c-0.615-0.698-1.628-0.535-1.927-0.472c-0.054,0.013-0.107,0.029-0.159,0.05c-0.132,0.054-0.267,0.114-0.4,0.17
	c-1.066,0.363-2.086,0.913-3.006,1.418l-0.069,0.038c-1.418-1.087-3.183-1.721-5.061-1.721c-4.595,0-8.334,3.738-8.334,8.334
	c0,0.007,0.001,0.013,0.001,0.02c-3.557,0.793-6.256,3.864-6.493,7.598c-3.955,0.463-7.064,3.702-7.333,7.713
	c-0.218-0.017-0.436-0.033-0.658-0.033c-4.595,0-8.334,3.738-8.334,8.334c0,1.412,0.37,2.752,1.008,3.94
	c-0.076,0.106-0.156,0.215-0.228,0.315c-0.086,0.12-0.167,0.233-0.249,0.348c-0.115,0.16-0.224,0.314-0.326,0.458
	c-0.069,0.097-0.138,0.195-0.203,0.288c-0.155,0.221-0.298,0.427-0.422,0.607c-0.031,0.045-0.058,0.085-0.087,0.128
	c-0.13,0.191-0.243,0.36-0.34,0.506c-0.011,0.016-0.025,0.037-0.035,0.053c-0.001,0.001-0.001,0.002-0.001,0.003
	c-0.149,0.228-0.263,0.406-0.343,0.537l-0.08,0.073c-0.3,0.274-0.403,0.704-0.262,1.085c0.105,0.283,0.334,0.602,0.792,1.102
	c2.798,3.052,6.321,4.589,10.048,4.588c3.366,0,6.898-1.254,10.211-3.775c11.124-8.47,20.661-22.446,20.775-22.615
	C47.041,12.414,45.037,4.886,44.379,2.412z M40.511,4.024c-0.043-0.07-0.086-0.14-0.131-0.21c-0.1-0.154-0.207-0.303-0.317-0.45
	C40.029,3.319,40,3.27,39.965,3.225c0.367-0.188,0.724-0.363,1.076-0.53C40.88,3.144,40.697,3.584,40.511,4.024z M33.403,2.017
	c1.671,0,3.22,0.666,4.37,1.767c0.073,0.07,0.14,0.145,0.21,0.219c0.138,0.146,0.271,0.297,0.395,0.456
	c0.068,0.087,0.134,0.175,0.197,0.265c0.118,0.168,0.226,0.343,0.327,0.523c0.048,0.086,0.1,0.169,0.145,0.257
	c0.136,0.27,0.26,0.549,0.357,0.842c-0.515,0.987-1.083,1.965-1.691,2.91c-0.003,0.004-0.064,0.098-0.159,0.241
	c-0.021,0.032-0.035,0.053-0.061,0.092c-0.033,0.049-0.08,0.119-0.119,0.179c-0.044,0.067-0.086,0.128-0.139,0.207
	c-0.054,0.081-0.122,0.181-0.185,0.274c-0.056,0.083-0.109,0.161-0.172,0.254c-0.068,0.099-0.147,0.214-0.222,0.324
	c-0.074,0.107-0.146,0.212-0.227,0.329c-0.084,0.121-0.179,0.256-0.27,0.387c-0.085,0.122-0.169,0.242-0.261,0.372
	c-0.102,0.145-0.213,0.301-0.323,0.456c-0.095,0.134-0.19,0.268-0.291,0.409c-0.121,0.168-0.249,0.346-0.378,0.523
	c-0.07,0.096-0.14,0.194-0.212,0.292c-0.021-0.057-0.053-0.109-0.076-0.165c-0.022-0.055-0.049-0.107-0.072-0.162
	c-0.08-0.189-0.164-0.375-0.258-0.557c-0.068-0.133-0.135-0.266-0.21-0.395c-0.004-0.007-0.007-0.015-0.011-0.022
	c-0.004-0.006-0.01-0.009-0.013-0.015c-0.006-0.01-0.013-0.018-0.018-0.028c-0.004-0.007-0.008-0.015-0.012-0.022
	c-0.007-0.012-0.009-0.026-0.016-0.038c-0.021-0.035-0.048-0.065-0.07-0.1c-0.059-0.094-0.123-0.184-0.186-0.275
	c-0.123-0.18-0.244-0.359-0.38-0.528c-0.013-0.016-0.023-0.036-0.036-0.052c-0.01-0.012-0.025-0.017-0.036-0.029
	c-0.001-0.001-0.002-0.003-0.004-0.004c-0.008-0.011-0.01-0.024-0.018-0.034c-0.001-0.005-0.002-0.004-0.004-0.005
	c-0.034-0.041-0.076-0.075-0.111-0.115c-0.065-0.075-0.133-0.148-0.201-0.221c-0.148-0.158-0.296-0.314-0.456-0.46
	c-0.082-0.075-0.171-0.142-0.256-0.214c-0.003-0.003-0.006-0.005-0.009-0.008c-0.101-0.085-0.199-0.174-0.304-0.254
	c-0.12-0.092-0.24-0.181-0.365-0.266C31.55,9.61,31.531,9.59,31.508,9.575c-0.003-0.002-0.005-0.003-0.008-0.005
	c-0.009-0.006-0.019-0.006-0.028-0.011c-0.016-0.012-0.028-0.027-0.045-0.038c-0.026-0.017-0.057-0.029-0.083-0.046
	c-0.103-0.066-0.211-0.122-0.317-0.183c-0.174-0.1-0.347-0.199-0.529-0.286c-0.036-0.017-0.067-0.041-0.103-0.057
	c-0.001,0-0.002-0.001-0.003-0.002h0c-0.017-0.008-0.035-0.006-0.052-0.013c-0.013-0.007-0.022-0.019-0.036-0.026
	c-0.08-0.036-0.155-0.063-0.233-0.096c-0.059-0.025-0.118-0.05-0.179-0.074c-0.083-0.033-0.167-0.067-0.249-0.096
	c-0.063-0.022-0.127-0.042-0.191-0.063c-0.097-0.032-0.196-0.069-0.292-0.096L29.16,8.485c0,0-0.001,0-0.001,0
	c-0.009-0.002-0.017,0-0.026-0.002c-0.236-0.067-0.476-0.125-0.719-0.171c-0.072-0.013-0.145-0.02-0.218-0.032
	c-0.322-0.052-0.649-0.084-0.982-0.097c-0.048-0.002-0.094-0.013-0.142-0.014C27.169,4.76,29.971,2.017,33.403,2.017z
	 M26.246,10.199c0.21-0.021,0.423-0.033,0.638-0.033c0.718,0,1.405,0.137,2.052,0.362c0.116,0.041,0.234,0.081,0.353,0.131
	c0.241,0.1,0.473,0.216,0.698,0.344c0.075,0.042,0.154,0.081,0.226,0.125c0.275,0.172,0.535,0.364,0.78,0.574
	c0.023,0.02,0.05,0.036,0.073,0.057c0.273,0.241,0.525,0.506,0.754,0.791c0.015,0.019,0.028,0.042,0.043,0.061
	c0.198,0.253,0.375,0.522,0.533,0.804c0.056,0.101,0.102,0.207,0.153,0.311c0.101,0.205,0.193,0.414,0.272,0.63
	c0.047,0.13,0.088,0.261,0.127,0.394c0.058,0.2,0.101,0.405,0.139,0.613c0.019,0.104,0.052,0.203,0.066,0.31
	c-0.013,0.017-0.026,0.035-0.039,0.052c-0.114,0.151-0.236,0.306-0.351,0.458c-0.332,0.434-0.663,0.869-0.997,1.296
	c-0.181,0.231-0.363,0.456-0.544,0.684c-0.288,0.363-0.576,0.728-0.865,1.085c-0.2,0.247-0.401,0.487-0.601,0.73
	c-0.273,0.332-0.546,0.665-0.82,0.991c-0.203,0.242-0.407,0.477-0.61,0.715c-0.215,0.251-0.429,0.502-0.644,0.749
	c-0.094-0.421-0.221-0.829-0.376-1.224c-0.002-0.006-0.004-0.012-0.007-0.018c-0.153-0.386-0.333-0.757-0.539-1.113
	c-0.016-0.027-0.033-0.053-0.049-0.08c-0.409-0.687-0.912-1.309-1.494-1.851c-0.044-0.041-0.087-0.08-0.132-0.12
	c-0.291-0.26-0.596-0.504-0.922-0.721c-0.003-0.002-0.005-0.003-0.008-0.005c-0.318-0.211-0.654-0.395-1-0.562
	c-0.059-0.028-0.116-0.058-0.175-0.085c-0.348-0.158-0.707-0.294-1.078-0.403c-0.052-0.015-0.105-0.026-0.157-0.041
	c-0.345-0.094-0.697-0.167-1.058-0.216c-0.039-0.005-0.075-0.018-0.114-0.023C20.824,12.936,23.225,10.503,26.246,10.199z
	 M13.218,24.08c0.086-3.419,2.894-6.173,6.332-6.173c0.006,0,0.011,0.001,0.017,0.001c0,0,0,0,0.001,0
	c0.365,0.001,0.721,0.038,1.07,0.099c0.053,0.009,0.107,0.014,0.159,0.024c0.135,0.027,0.266,0.064,0.398,0.099
	c0.065,0.017,0.132,0.031,0.196,0.05c0.128,0.039,0.251,0.086,0.375,0.133c0.064,0.024,0.13,0.045,0.194,0.071
	c0.123,0.051,0.243,0.11,0.362,0.168c0.06,0.029,0.121,0.056,0.179,0.087c0.119,0.063,0.234,0.133,0.349,0.204
	c0.054,0.033,0.109,0.064,0.162,0.099c0.115,0.076,0.226,0.158,0.336,0.241c0.047,0.036,0.096,0.069,0.142,0.106
	c0.111,0.089,0.218,0.183,0.323,0.279c0.04,0.036,0.081,0.071,0.119,0.108c0.107,0.103,0.209,0.211,0.309,0.321
	c0.031,0.034,0.063,0.068,0.094,0.103c0.103,0.119,0.2,0.242,0.294,0.368c0.022,0.03,0.045,0.059,0.066,0.089
	c0.097,0.136,0.189,0.276,0.275,0.42c0.014,0.022,0.028,0.044,0.041,0.067c0.09,0.154,0.174,0.313,0.252,0.475
	c0.006,0.013,0.012,0.026,0.018,0.038c0.081,0.173,0.155,0.35,0.22,0.531c0.001,0.002,0.002,0.005,0.003,0.007
	c0.202,0.563,0.327,1.164,0.362,1.79c0,0.003,0.002,0.005,0.002,0.008c0.006,0.115,0.018,0.229,0.018,0.346
	c0,0.074-0.002,0.147-0.005,0.22c-2.103,2.301-4.18,4.354-6.181,6.11c-0.222,0.012-0.442-0.002-0.663-0.022
	c-0.071-0.007-0.142-0.012-0.214-0.021c-0.011-0.001-0.023-0.005-0.034-0.006c-0.002-0.012-0.007-0.023-0.009-0.035
	c-0.065-0.358-0.149-0.708-0.259-1.049c-0.009-0.029-0.022-0.056-0.031-0.085c-0.094-0.282-0.204-0.556-0.327-0.824
	c-0.048-0.105-0.098-0.207-0.15-0.31c-0.098-0.193-0.204-0.38-0.317-0.564c-0.065-0.107-0.125-0.216-0.194-0.319
	c-0.16-0.238-0.334-0.466-0.517-0.686c-0.102-0.122-0.212-0.237-0.321-0.353c-0.113-0.12-0.228-0.238-0.347-0.352
	c-0.114-0.108-0.227-0.214-0.347-0.315c-0.183-0.155-0.374-0.301-0.57-0.44c-0.095-0.067-0.19-0.134-0.288-0.197
	c-0.24-0.156-0.488-0.298-0.744-0.429c-0.073-0.037-0.146-0.071-0.22-0.106c-0.294-0.14-0.595-0.264-0.906-0.369
	C13.234,24.087,13.226,24.083,13.218,24.08z M10.586,25.649c0.492,0,0.969,0.062,1.429,0.169c0.002,0,0.004,0.002,0.006,0.002
	c0.64,0.148,1.234,0.395,1.778,0.714c0.056,0.033,0.112,0.067,0.168,0.102c0.233,0.147,0.457,0.306,0.667,0.48
	c0.06,0.05,0.114,0.105,0.172,0.156c0.156,0.14,0.305,0.287,0.446,0.442c0.062,0.067,0.126,0.133,0.184,0.203
	c0.167,0.199,0.32,0.409,0.462,0.627c0.045,0.069,0.086,0.14,0.128,0.211c0.142,0.24,0.276,0.486,0.386,0.745
	c0.001,0.003,0.003,0.006,0.004,0.009c0.121,0.287,0.218,0.587,0.296,0.893c0.008,0.031,0.016,0.062,0.024,0.094
	c0.075,0.314,0.13,0.636,0.157,0.966c0,0,0,0.001,0,0.002c0.014,0.172,0.026,0.345,0.026,0.521c0,0.307-0.023,0.616-0.067,0.92
	c-0.957,0.728-1.929,1.41-2.9,2.019c-0.188,0.118-0.377,0.239-0.563,0.351c-0.21,0.126-0.42,0.243-0.63,0.361
	c-0.201,0.114-0.404,0.234-0.603,0.34c-0.004,0.002-0.009,0.002-0.013,0.004c-0.205,0.109-0.41,0.21-0.615,0.311
	c-0.221,0.11-0.442,0.22-0.659,0.32c-0.001,0.001-0.003,0-0.005,0.001h-0.001c0,0,0,0.001,0,0.001
	c-0.274,0.125-0.548,0.246-0.821,0.357c-0.004,0.002-0.007,0.005-0.012,0.007c-0.154,0.063-0.304,0.116-0.456,0.173
	c-0.257,0.097-0.513,0.193-0.769,0.277c-0.134,0.044-0.266,0.079-0.399,0.118l-0.002,0c-0.186,0.056-0.369,0.107-0.55,0.154
	c-0.166-0.079-0.318-0.176-0.475-0.268c-0.09-0.053-0.185-0.097-0.272-0.154c-0.104-0.069-0.197-0.152-0.296-0.226
	c-0.13-0.097-0.264-0.188-0.386-0.295c-0.432-0.38-0.815-0.821-1.138-1.315c-0.017-0.025-0.039-0.045-0.058-0.068
	c-0.627-0.991-0.978-2.158-0.978-3.387C4.252,28.491,7.093,25.649,10.586,25.649z M4.481,37.648
	c0.022,0.023,0.047,0.043,0.069,0.066c0.134,0.142,0.271,0.282,0.414,0.413c-0.188,0.024-0.51,0.058-0.882,0.082
	C4.209,38.03,4.332,37.856,4.481,37.648z M40.837,18.529c-0.093,0.138-9.453,13.849-20.313,22.117
	c-6.122,4.663-12.771,4.493-17.412-0.412c0.047,0.001,0.095,0.004,0.142,0.004c0.892,0,1.727-0.096,1.95-0.124
	c0.859-0.025,1.748-0.146,2.691-0.366c0.035-0.004,0.071-0.01,0.105-0.018c0,0,0.001,0,0.001,0c0.453-0.106,0.915-0.241,1.382-0.393
	c0.006-0.002,0.013-0.001,0.019-0.003c0.147-0.047,0.295-0.106,0.442-0.159c0.307-0.108,0.616-0.223,0.929-0.351
	c0.009-0.003,0.018-0.002,0.027-0.005c0.178-0.073,0.355-0.154,0.533-0.232c0.274-0.12,0.55-0.249,0.828-0.383
	c0.008-0.004,0.017-0.002,0.026-0.006c0.153-0.075,0.306-0.155,0.458-0.233c0.143-0.073,0.284-0.141,0.428-0.217
	c0.004-0.002,0.009-0.004,0.013-0.007c0.002-0.001,0.003-0.002,0.004-0.003c0.137-0.073,0.276-0.155,0.414-0.232
	c0.013-0.007,0.028-0.009,0.041-0.016c0.003-0.002,0.007-0.004,0.01-0.007c0.142-0.078,0.283-0.163,0.424-0.243
	c0.132-0.076,0.262-0.147,0.394-0.226c0.033-0.02,0.067-0.037,0.1-0.057c0.007-0.004,0.01-0.012,0.017-0.016
	c0.099-0.06,0.2-0.125,0.299-0.187c0.01-0.006,0.022-0.008,0.032-0.014c0.048-0.03,0.096-0.06,0.143-0.09
	c0.061-0.038,0.119-0.079,0.18-0.118c0.308-0.195,0.618-0.397,0.93-0.608c0.296-0.197,0.588-0.399,0.879-0.603
	c0.023-0.016,0.046-0.033,0.069-0.049c7.097-5,12.892-12.01,17.684-18.34c0.071-0.094,0.145-0.192,0.216-0.287
	c0.022-0.029,0.044-0.057,0.066-0.086c0.002-0.002,0.002-0.004,0.004-0.006c0.087-0.115,0.175-0.233,0.263-0.349
	c0.001-0.001,0.002-0.002,0.003-0.004c0.012-0.016,0.022-0.03,0.033-0.045c2.74-3.629,5.652-7.648,7.41-12.222
	C43.404,6.837,44.401,12.856,40.837,18.529z"/>
<g>
</g>
<g>
</g>
<g>
</g>
<g>
</g>
<g>
</g>
<g>
</g>
<g>
</g>
<g>
</g>
<g>
</g>
<g>
</g>
<g>
</g>
<g>
</g>
<g>
</g>
<g>
</g>
<g>
</g>
</svg>
