<?xml version="1.0" encoding="iso-8859-1"?>
<!-- Generator: Adobe Illustrator 18.0.0, SVG Export Plug-In . SVG Version: 6.00 Build 0)  -->
<!DOCTYPE svg PUBLIC "-//W3C//DTD SVG 1.1//EN" "http://www.w3.org/Graphics/SVG/1.1/DTD/svg11.dtd">
<svg version="1.1" id="Capa_1" xmlns="http://www.w3.org/2000/svg" xmlns:xlink="http://www.w3.org/1999/xlink" x="0px" y="0px"
	 viewBox="0 0 249.456 249.456" style="enable-background:new 0 0 249.456 249.456;" xml:space="preserve">
<g>
	<path style="fill:#1D1D1B;" d="M248.198,125.369c0.817-4.207,1.259-8.547,1.259-12.99c0-37.516-30.521-68.037-68.037-68.037
		c-2.734,0-5.489,0.165-8.189,0.489L39.978,60.834c-0.009,0.001-0.018,0.002-0.027,0.003C17.172,63.586,0,82.976,0,105.953
		c0,4.23,0.606,8.355,1.726,12.29C0.586,122.264,0,126.426,0,130.652c0,21.229,15.038,39.906,35.756,44.408l131.156,28.502
		c4.739,1.03,9.619,1.552,14.507,1.552c37.516,0,68.037-30.521,68.037-68.036c0-3.268-0.234-6.553-0.697-9.765
		C248.66,126.625,248.464,125.976,248.198,125.369z M41.71,75.734l1.222-0.125c0.238-0.025,0.473-0.06,0.704-0.106l131.384-15.78
		c2.109-0.253,4.262-0.381,6.4-0.381c29.245,0,53.037,23.792,53.037,53.037c0,29.244-23.792,53.036-53.037,53.036
		c-3.818,0-7.627-0.407-11.323-1.21L38.942,135.703C25.069,132.688,15,120.177,15,105.953C15,90.572,26.479,77.592,41.71,75.734z
		 M181.419,190.114c-3.818,0-7.628-0.407-11.323-1.21L38.942,160.402c-10.253-2.228-18.423-9.646-21.991-19.106
		c5.366,4.356,11.755,7.533,18.806,9.065l131.156,28.502c4.739,1.03,9.62,1.552,14.507,1.552c18.272,0,34.872-7.254,47.108-19.017
		C219.694,178.437,201.901,190.114,181.419,190.114z"/>
	<path style="fill:#1D1D1B;" d="M180.677,138.805c-1.95,0-3.893-0.208-5.775-0.617l-18.44-4.007l-3.186,14.658l18.44,4.007
		c2.926,0.636,5.941,0.959,8.961,0.959c23.178,0,42.035-18.857,42.035-42.035c0-4.142-3.358-7.5-7.5-7.5s-7.5,3.358-7.5,7.5
		C207.712,126.677,195.584,138.805,180.677,138.805z"/>
	<path style="fill:#1D1D1B;" d="M32.186,119.834c4.142,0,7.5-3.358,7.5-7.5c0-8.036,6.106-14.896,14.01-15.879l0.729-0.075
		c0.195-0.02,0.387-0.047,0.576-0.082l81.281-9.763c4.112-0.494,7.046-4.228,6.552-8.341c-0.494-4.112-4.222-7.051-8.341-6.552
		l-82.532,9.913c-0.016,0.002-0.032,0.004-0.048,0.006c-15.355,1.878-27.227,15.185-27.227,30.773
		C24.686,116.476,28.044,119.834,32.186,119.834z"/>
	<path style="fill:#1D1D1B;" d="M177.441,132.738c13.657,0,24.768-11.111,24.768-24.768s-11.111-24.768-24.768-24.768
		s-24.768,11.111-24.768,24.768S163.784,132.738,177.441,132.738z M177.441,98.203c5.386,0,9.768,4.382,9.768,9.768
		s-4.382,9.768-9.768,9.768s-9.768-4.382-9.768-9.768S172.055,98.203,177.441,98.203z"/>
</g>
<g>
</g>
<g>
</g>
<g>
</g>
<g>
</g>
<g>
</g>
<g>
</g>
<g>
</g>
<g>
</g>
<g>
</g>
<g>
</g>
<g>
</g>
<g>
</g>
<g>
</g>
<g>
</g>
<g>
</g>
</svg>
