<?xml version='1.0' encoding='iso-8859-1'?>
<!DOCTYPE svg PUBLIC '-//W3C//DTD SVG 1.1//EN' 'http://www.w3.org/Graphics/SVG/1.1/DTD/svg11.dtd'>
<svg version="1.1" xmlns="http://www.w3.org/2000/svg" viewBox="0 0 447.113 447.113" xmlns:xlink="http://www.w3.org/1999/xlink" enable-background="new 0 0 447.113 447.113">
  <g>
    <path d="m337.601,143.407l87.285-117.307c2.963-3.981 2.558-9.532-0.951-13.041-3.51-3.508-9.06-3.912-13.041-0.952l-117.308,87.285-13.714-13.714c-3.906-3.905-10.236-3.905-14.143,0l-35.624,35.624c-17.053-12.397-41.127-10.916-56.498,4.454l-166.73,166.732c-4.435,4.434-6.877,10.33-6.877,16.602s2.442,12.167 6.877,16.602l104.425,104.425c4.577,4.577 10.589,6.865 16.602,6.865 6.012,0 12.025-2.289 16.602-6.866l166.731-166.731c15.37-15.37 16.851-39.445 4.453-56.499l35.624-35.624c3.905-3.905 3.905-10.237 0-14.143l-13.713-13.712zm30.559-74.573l-44.852,60.28-15.427-15.427 60.279-44.853zm-71.065,180.409l-166.731,166.732c-1.356,1.356-3.564,1.355-4.92,0l-104.425-104.426c-0.887-0.886-1.019-1.921-1.019-2.459s0.132-1.573 1.02-2.46l166.731-166.732c9.216-9.216 24.212-9.217 33.431,0l75.914,75.914c9.216,9.217 9.216,24.214-0.001,33.431zm4.835-56.88l-57.3-57.3 28.171-28.171 57.3,57.3-28.171,28.171z"/>
    <path d="m443.631,103.168l-17.91-34.18c-1.726-3.294-5.138-5.358-8.857-5.358-3.719,0-7.131,2.064-8.857,5.358l-17.911,34.18c-6.17,11.773-3.999,25.998 5.399,35.396 5.892,5.891 13.63,8.837 21.369,8.837 7.738,0 15.478-2.946 21.369-8.837 9.398-9.4 11.567-23.624 5.398-35.396zm-19.541,21.253c-1.93,1.931-4.497,2.994-7.227,2.994s-5.297-1.063-7.227-2.994c0,0 0,0-0.001,0-3.179-3.179-3.912-7.989-1.826-11.97l9.054-17.276 9.053,17.276c2.086,3.981 1.353,8.792-1.826,11.97z"/>
  </g>
</svg>
