<?xml version="1.0" encoding="iso-8859-1"?>
<!-- Generator: Adobe Illustrator 19.0.0, SVG Export Plug-In . SVG Version: 6.00 Build 0)  -->
<svg version="1.1" id="Layer_1" xmlns="http://www.w3.org/2000/svg" xmlns:xlink="http://www.w3.org/1999/xlink" x="0px" y="0px"
	 viewBox="0 0 512.001 512.001" style="enable-background:new 0 0 512.001 512.001;" xml:space="preserve">
<g>
	<g>
		<path d="M502.668,403.711h-71.935c-16.341-30.036-40.174-55.425-69.242-73.654c-18.549-11.632-38.798-20.013-59.934-24.973
			v-86.458c0-21.305-15.755-38.996-36.225-42.043v-51.84c10.487-3.321,18.113-13.141,18.113-24.714V29.969
			c0-14.294-11.628-25.921-25.921-25.921h-3.046c-14.293,0-25.921,11.628-25.921,25.921v70.063c0,11.572,7.625,21.393,18.113,24.714
			v51.84c-20.47,3.047-36.225,20.737-36.225,42.043v86.458c-21.135,4.959-41.385,13.342-59.932,24.973
			c-29.067,18.229-52.9,43.617-69.243,73.654H9.332c-5.154,0-9.332,4.178-9.332,9.332s4.178,9.332,9.332,9.332h32.326l29.711,53.51
			c10.981,19.779,31.857,32.067,54.483,32.067h260.3c22.625,0,43.501-12.287,54.481-32.067l29.712-53.511h32.326
			c5.155,0,9.332-4.178,9.332-9.332S507.823,403.711,502.668,403.711z M409.154,403.711h-56.638
			c12.486-10.184,23.437-22.067,29.123-34.339C392.052,379.528,401.308,391.025,409.154,403.711z M346.88,342.916
			c6.856,3.999,13.444,8.448,19.717,13.331c-3.302,13.752-22.187,32.947-46.637,47.465h-68.203c0.015-1.079,0.017-2.15,0-3.214
			c8.418-1.701,22.087-5.042,36.794-10.983C316.326,378.295,336.26,362.313,346.88,342.916z M311.94,327.265
			c6.265,2.032,12.389,4.413,18.358,7.106c-17.056,30.788-61.291,43.34-80.477,47.444c-1.461-7.585-3.657-14.67-6.299-21.206
			C273.614,356.053,301.681,335.51,311.94,327.265z M247.221,29.969c0-4.003,3.256-7.258,7.258-7.258h3.046
			c4.003,0,7.257,3.256,7.257,7.258v70.063c0,4.003-3.255,7.257-7.257,7.257h-3.046c-4.003,0-7.258-3.256-7.258-7.257V29.969z
			 M229.109,218.628c0-13.149,10.698-23.848,23.848-23.848h6.093c13.149,0,23.847,10.698,23.847,23.848v24.506h-53.787V218.628z
			 M282.895,261.797v39.826c-5.81-0.788-11.671-1.309-17.562-1.584v-38.242H282.895z M229.109,261.797h17.562v38.242
			c-5.891,0.275-11.75,0.795-17.562,1.584V261.797z M256.003,318.458c11.021,0,21.863,1,32.435,2.911
			c-13.481,9.116-34.04,20.462-53.841,21.398c-5.025-8.376-10.418-15.309-15.084-20.617
			C231.36,319.728,243.568,318.458,256.003,318.458z M198.942,327.647c9.482,9.247,34.666,37.509,34.121,76.065h-27.145v0
			c-1.778-31.659-20.085-53.005-33.819-64.68C180.69,334.521,189.67,330.722,198.942,327.647z M155.006,349.277
			c10.876,7.974,30.092,25.964,32.194,54.434h-23.642c-1.715-11.873-7.746-27.569-25.366-41.54
			C143.547,357.536,149.162,353.233,155.006,349.277z M124.573,375.274c8.051,6.012,17.232,15.447,20.049,28.438h-41.771
			C109.212,393.427,116.492,383.916,124.573,375.274z M424.316,466.826c-7.693,13.856-22.316,22.463-38.165,22.463H125.849
			c-15.849,0-30.473-8.607-38.165-22.463l-24.68-44.452h385.993L424.316,466.826z"/>
	</g>
</g>
<g>
</g>
<g>
</g>
<g>
</g>
<g>
</g>
<g>
</g>
<g>
</g>
<g>
</g>
<g>
</g>
<g>
</g>
<g>
</g>
<g>
</g>
<g>
</g>
<g>
</g>
<g>
</g>
<g>
</g>
</svg>
