<?xml version="1.0" encoding="iso-8859-1"?>
<!-- Generator: Adobe Illustrator 19.0.0, SVG Export Plug-In . SVG Version: 6.00 Build 0)  -->
<svg version="1.1" id="Capa_1" xmlns="http://www.w3.org/2000/svg" xmlns:xlink="http://www.w3.org/1999/xlink" x="0px" y="0px"
	 viewBox="0 0 82.702 82.702" style="enable-background:new 0 0 82.702 82.702;" xml:space="preserve">
<g>
	<path d="M79.703,48.74h-5.582c-0.292-15.198-13.58-27.479-29.886-27.479c-5.421,0-10.505,1.364-14.894,3.735l-2.388-2.387
		c1.105-1.597,1.701-3.488,1.701-5.471c0-2.574-1.002-4.994-2.822-6.813c-1.82-1.821-4.24-2.824-6.814-2.824
		s-4.994,1.003-6.813,2.824c-1.813,1.814-2.75,4.178-2.812,6.562c-2.483,0.061-4.808,1.057-6.569,2.818
		C1.003,21.525,0,23.945,0,26.519c0,2.574,1.003,4.993,2.824,6.813c1.819,1.82,4.239,2.822,6.813,2.822
		c1.984,0,3.877-0.596,5.47-1.7l2.355,2.355c-1.92,3.606-3.03,7.651-3.112,11.931h-4.284c-1.657,0-3,1.344-3,3
		c0,13.155,16.612,23.461,37.818,23.461c21.208,0,37.818-10.306,37.818-23.461C82.703,50.083,81.36,48.74,79.703,48.74z
		 M44.235,27.26c12.991,0,23.59,9.59,23.886,21.479h-4.145c-0.784-9.672-9.329-17.319-19.741-17.319c-1.657,0-3,1.343-3,3
		c0,1.657,1.343,3,3,3c7.09,0,12.942,4.959,13.724,11.319H20.351C20.646,36.85,31.242,27.26,44.235,27.26z M17.251,28.113
		c-0.565-0.565-1.329-0.879-2.121-0.879c-0.096,0-0.192,0.004-0.289,0.014c-0.893,0.086-1.699,0.567-2.2,1.311
		c-0.132,0.196-0.277,0.373-0.437,0.532c-1.371,1.373-3.764,1.373-5.138-0.002C6.378,28.402,6,27.49,6,26.52
		s0.379-1.883,1.067-2.572c1.371-1.371,3.766-1.372,5.135,0.001c1.171,1.173,3.07,1.174,4.243,0.004
		c0.588-0.586,0.881-1.356,0.881-2.125c0-0.767-0.292-1.533-0.876-2.118c-1.417-1.419-1.417-3.727-0.001-5.143
		c1.373-1.374,3.766-1.375,5.142,0.001c0.686,0.686,1.064,1.598,1.064,2.568s-0.378,1.884-1.062,2.568
		c-0.157,0.156-0.34,0.306-0.544,0.444c-0.74,0.502-1.217,1.309-1.302,2.199c-0.084,0.89,0.233,1.772,0.866,2.404l3.672,3.671
		c-1.221,1.026-2.349,2.146-3.376,3.346L17.251,28.113z M44.885,69.201c-15.389,0-28.648-6.364-31.326-14.461h62.652
		C73.532,62.835,60.274,69.201,44.885,69.201z"/>
</g>
<g>
</g>
<g>
</g>
<g>
</g>
<g>
</g>
<g>
</g>
<g>
</g>
<g>
</g>
<g>
</g>
<g>
</g>
<g>
</g>
<g>
</g>
<g>
</g>
<g>
</g>
<g>
</g>
<g>
</g>
</svg>
