<?xml version="1.0" encoding="iso-8859-1"?>
<!-- Generator: Adobe Illustrator 19.0.0, SVG Export Plug-In . SVG Version: 6.00 Build 0)  -->
<svg version="1.1" id="Layer_1"
	xmlns="http://www.w3.org/2000/svg"
	xmlns:xlink="http://www.w3.org/1999/xlink" x="0px" y="0px" viewBox="0 0 512 512" style="enable-background:new 0 0 512 512;" xml:space="preserve">
	<g>
		<g>
			<path d="M231.841,161.766h-11.86V108.94c0-5.633-4.566-10.199-10.199-10.199h-34.947l-9.534-89.62
			C164.749,3.934,160.375,0,155.159,0h-29.412c-5.215,0-9.59,3.934-10.142,9.12l-9.534,89.62H71.125
			c-5.633,0-10.199,4.566-10.199,10.199v52.827h-11.86c-5.633,0-10.199,4.566-10.199,10.199v329.835
			c0,5.633,4.566,10.199,10.199,10.199h182.775c5.633,0,10.199-4.566,10.199-10.199V171.966
			C242.04,166.333,237.474,161.766,231.841,161.766z M134.919,20.398h11.069l8.334,78.342h-27.738L134.919,20.398z M81.324,119.139
			h118.259v42.628H81.324V119.139z M221.641,491.602H59.265V182.165h162.376V491.602z"/>
		</g>
	</g>
	<g>
		<g>
			<path d="M462.935,161.766h-11.86V108.94c0-5.633-4.566-10.199-10.199-10.199H405.93l-9.534-89.62
			C395.844,3.934,391.469,0,386.254,0h-29.412c-5.215,0-9.59,3.934-10.142,9.12l-9.534,89.62h-34.947
			c-5.633,0-10.199,4.566-10.199,10.199v52.827h-11.86c-5.633,0-10.199,4.566-10.199,10.199v329.835
			c0,5.633,4.566,10.199,10.199,10.199h182.775c5.633,0,10.199-4.566,10.199-10.199V171.966
			C473.134,166.333,468.568,161.766,462.935,161.766z M366.013,20.398h11.069l8.335,78.342h-27.738L366.013,20.398z
			 M312.418,119.139h118.259v42.628H312.418V119.139z M452.736,491.602H290.36V182.165h162.376V491.602z"/>
		</g>
	</g>
	<g>
		<g>
			<path d="M82.679,318.28c-5.633,0-10.199,4.566-10.199,10.199v7.353c0,5.633,4.566,10.199,10.199,10.199
			c5.633,0,10.199-4.566,10.199-10.199v-7.353C92.879,322.847,88.312,318.28,82.679,318.28z"/>
		</g>
	</g>
	<g>
		<g>
			<path d="M82.679,357.147c-5.633,0-10.199,4.566-10.199,10.199v101.892c0,5.633,4.566,10.199,10.199,10.199
			c5.633,0,10.199-4.566,10.199-10.199V367.346C92.879,361.713,88.312,357.147,82.679,357.147z"/>
		</g>
	</g>
	<g>
	</g>
	<g>
	</g>
	<g>
	</g>
	<g>
	</g>
	<g>
	</g>
	<g>
	</g>
	<g>
	</g>
	<g>
	</g>
	<g>
	</g>
	<g>
	</g>
	<g>
	</g>
	<g>
	</g>
	<g>
	</g>
	<g>
	</g>
	<g>
	</g>
</svg>
