<?xml version="1.0" encoding="utf-8"?>

<svg version="1.1" id="Icons"
	xmlns="http://www.w3.org/2000/svg"
	xmlns:xlink="http://www.w3.org/1999/xlink" x="0px" y="0px" viewBox="0 0 32 32" style="enable-background:new 0 0 32 32;" xml:space="preserve">
	<style type="text/css">
	.st0{fill:none;stroke:#000000;stroke-width:2;stroke-linecap:round;stroke-linejoin:round;stroke-miterlimit:10;}
	</style>
	<path class="st0" d="M28,9L28,9c0-2.2-1.8-4-4-4h-7.2C15,5,13.3,4.3,12,3l0,0"/>
	<path class="st0" d="M28,9c0,5-4,9-9,9l-6.4,0c-1.3,0-2.6,0.9-2.6,2.2c0,1.8,1.5,2.8,3,2.8"/>
	<line class="st0" x1="22" y1="11" x2="22" y2="13"/>
	<path class="st0" d="M8.8,10.4C8.2,11.3,8,12.3,8,13.5c0,2.2,1.1,4.1,2.7,5.3"/>
	<path class="st0" d="M28,9L13.9,9c-4.3,0-8.5,2.5-9.5,6.7C3,22,7.4,27,13,27"/>
	<path class="st0" d="M13,23v4l0.8-0.3c1.4-0.5,2.9-0.2,4.1,0.7l0,0c1.5,1.2,3.8,0.6,4.4-1.3l0,0c0.4-1.3-0.1-2.6-1.2-3.3l0,0
	c-1.9-1.2-4.3-1.3-6.4-0.5L13,23z"/>
</svg>
