<?xml version="1.0" encoding="iso-8859-1"?>
<!-- Generator: Adobe Illustrator 19.0.0, SVG Export Plug-In . SVG Version: 6.00 Build 0)  -->
<svg version="1.1" id="Layer_1"
	xmlns="http://www.w3.org/2000/svg"
	xmlns:xlink="http://www.w3.org/1999/xlink" x="0px" y="0px" viewBox="0 0 209.243 209.243" style="enable-background:new 0 0 209.243 209.243;" xml:space="preserve">
	<g>
		<g>
			<g>
				<path d="M200.689,146.429H8.553c-2.04,0-3.695,1.653-3.695,3.695c0,32.598,44.754,59.119,99.763,59.119
				s99.763-26.521,99.763-59.119C204.384,148.081,202.729,146.429,200.689,146.429z M104.621,201.852
				c-48.714,0-88.743-21.228-92.14-48.034h184.28C193.364,180.625,153.335,201.852,104.621,201.852z"/>
				<path d="M118.874,87.786c0.685,1.187,1.927,1.847,3.204,1.847c0.626,0,1.263-0.159,1.844-0.494l28.798-16.626l0.002-0.001
				l6.399-3.695l35.199-20.322c0.848-0.491,1.469-1.299,1.721-2.244c0.254-0.946,0.121-1.956-0.368-2.804L171.656,1.851
				c-1.023-1.768-3.286-2.378-5.048-1.353L137.81,17.124h-0.001l-6.399,3.695l-35.2,20.323c-0.848,0.491-1.469,1.299-1.721,2.244
				c-0.254,0.946-0.121,1.956,0.368,2.804L118.874,87.786z M167.103,8.746l20.322,35.196l-22.399,12.932l-20.322-35.196
				L167.103,8.746z M135.104,27.221l3.199-1.847l20.322,35.195l-3.199,1.847l-3.199,1.847l-20.322-35.195L135.104,27.221z
				 M125.505,32.763l20.321,35.196l-22.399,12.932l-20.322-35.196L125.505,32.763z"/>
				<rect x="76.91" y="49.596" transform="matrix(0.7071 0.7071 -0.7071 0.7071 63.1373 -40.6224)" width="7.389" height="12.614"/>
				<rect x="55.823" y="70.683" transform="matrix(0.7071 0.7071 -0.7071 0.7071 70.79 -22.1479)" width="12.614" height="7.389"/>
				<rect x="52.892" y="87.31" width="7.39" height="11.085"/>
				<rect x="81.687" y="78.073" transform="matrix(0.7071 0.7071 -0.7071 0.7071 83.5915 -38.272)" width="12.614" height="7.389"/>

				<rect x="80.605" y="90.24" transform="matrix(-0.7071 0.7071 -0.7071 -0.7071 212.1774 105.2071)" width="7.389" height="12.614"/>
				<rect x="71.367" y="109.48" width="7.39" height="11.085"/>

				<rect x="106.47" y="90.241" transform="matrix(-0.7071 0.7071 -0.7071 -0.7071 256.3315 86.9195)" width="7.389" height="12.614"/>

				<rect x="89.078" y="115.023" transform="matrix(0.7071 0.7071 -0.7071 0.7071 111.8832 -32.6758)" width="12.614" height="7.389"/>
			</g>
		</g>
	</g>
	<g>
	</g>
	<g>
	</g>
	<g>
	</g>
	<g>
	</g>
	<g>
	</g>
	<g>
	</g>
	<g>
	</g>
	<g>
	</g>
	<g>
	</g>
	<g>
	</g>
	<g>
	</g>
	<g>
	</g>
	<g>
	</g>
	<g>
	</g>
	<g>
	</g>
</svg>
