<?xml version="1.0" encoding="iso-8859-1"?>
<!-- Generator: Adobe Illustrator 19.0.0, SVG Export Plug-In . SVG Version: 6.00 Build 0)  -->
<svg version="1.1" id="Layer_1" xmlns="http://www.w3.org/2000/svg" xmlns:xlink="http://www.w3.org/1999/xlink" x="0px" y="0px"
	 viewBox="0 0 330 330" style="enable-background:new 0 0 330 330;" xml:space="preserve">
<g id="XMLID_231_">
	<path id="XMLID_232_" d="M330,164.999c0-8.284-6.716-15-15-15H15c-8.284,0-15,6.716-15,15c0,59.265,31.413,111.324,78.457,140.423
		c-2.158,2.598-3.457,5.935-3.457,9.577c0,8.284,6.716,15,15,15h150c8.284,0,15-6.716,15-15c0-3.642-1.299-6.978-3.457-9.577
		C298.587,276.323,330,224.264,330,164.999z M165,299.999c-69.369,0-126.686-52.595-134.172-120h268.344
		C291.685,247.405,234.369,299.999,165,299.999z"/>
	<path id="XMLID_236_" d="M95,105c0,8.284,6.716,15,15,15s15-6.716,15-15c0-21.215-11.21-32.424-19.396-40.608
		C98.25,57.038,94.999,53.432,95,44.999c-0.001-8.43,3.251-12.037,10.607-19.393c5.858-5.857,5.858-15.355,0.001-21.212
		c-5.857-5.859-15.356-5.857-21.214-0.001C76.209,12.579,64.997,23.789,65,44.999c-0.003,21.213,11.207,32.422,19.393,40.606
		C91.748,92.961,95,96.568,95,105z"/>
	<path id="XMLID_237_" d="M165,105c0,8.284,6.716,15,15,15s15-6.716,15-15c0-21.215-11.21-32.424-19.395-40.608
		c-7.355-7.354-10.606-10.96-10.605-19.393c-0.001-8.43,3.251-12.037,10.607-19.393c5.858-5.857,5.858-15.355,0.001-21.212
		c-5.857-5.859-15.356-5.857-21.214-0.001c-8.186,8.185-19.397,19.395-19.395,40.606c-0.003,21.213,11.207,32.422,19.393,40.606
		C161.748,92.961,165,96.568,165,105z"/>
	<path id="XMLID_238_" d="M235,105c0,8.284,6.716,15,15,15c8.284,0,15-6.716,15-15c0-21.215-11.21-32.424-19.395-40.608
		c-7.355-7.354-10.606-10.96-10.605-19.393c-0.001-8.43,3.251-12.037,10.607-19.393c5.858-5.857,5.858-15.355,0.001-21.212
		c-5.857-5.859-15.356-5.857-21.214-0.001c-8.186,8.185-19.397,19.395-19.395,40.606c-0.003,21.213,11.207,32.422,19.393,40.606
		C231.748,92.961,235,96.568,235,105z"/>
</g>
<g>
</g>
<g>
</g>
<g>
</g>
<g>
</g>
<g>
</g>
<g>
</g>
<g>
</g>
<g>
</g>
<g>
</g>
<g>
</g>
<g>
</g>
<g>
</g>
<g>
</g>
<g>
</g>
<g>
</g>
</svg>
