<?xml version='1.0' encoding='iso-8859-1'?>
<!DOCTYPE svg PUBLIC '-//W3C//DTD SVG 1.1//EN' 'http://www.w3.org/Graphics/SVG/1.1/DTD/svg11.dtd'>
<svg version="1.1" xmlns="http://www.w3.org/2000/svg" viewBox="0 0 319.894 319.894" xmlns:xlink="http://www.w3.org/1999/xlink" enable-background="new 0 0 319.894 319.894">
  <g>
    <path d="m318.04,40.997c-6.915-22.781-30.923-35.423-53.482-28.577l-138.763,42.117c-16.17-11.997-38.675-16.062-60.642-10.679-34.882,8.547-72.567,41.751-63.892,77.158 8.752,35.719 57.957,47.302 92.324,38.881 22.701-5.562 40.229-19.934 48.785-37.495l142.565-26.812 .029-.005 .029-.005c25.202-4.803 40.392-30.38 33.047-54.583zm-37.725,30.024l-153.078,28.79c-2.384,0.448-4.28,2.27-4.822,4.634-3.224,14.052-16.595,26.715-34.779,31.171-23.756,5.821-57.527-1.918-62.093-20.549-4.566-18.633 21.806-41.107 45.559-46.927 18.175-4.454 35.891,0.588 45.249,11.562 1.575,1.846 4.096,2.585 6.418,1.88l149.048-45.239c9.452-2.868 19.433,2.471 22.3,11.915 3.064,10.096-3.237,20.75-13.802,22.763z"/>
    <circle cx="62.035" cy="197.699" r="12.5"/>
    <circle cx="36.088" cy="247.209" r="12.5"/>
    <circle cx="87.981" cy="247.209" r="12.5"/>
    <circle cx="62.035" cy="296.831" r="12.5"/>
  </g>
</svg>
