<?xml version="1.0" encoding="iso-8859-1"?>
<!-- Generator: Adobe Illustrator 16.0.0, SVG Export Plug-In . SVG Version: 6.00 Build 0)  -->
<!DOCTYPE svg PUBLIC "-//W3C//DTD SVG 1.1//EN" "http://www.w3.org/Graphics/SVG/1.1/DTD/svg11.dtd">
<svg version="1.1" id="Capa_1"
	xmlns="http://www.w3.org/2000/svg"
	xmlns:xlink="http://www.w3.org/1999/xlink" x="0px" y="0px" width="480.874px" height="480.874px" viewBox="0 0 480.874 480.874" style="enable-background:new 0 0 480.874 480.874;" xml:space="preserve">
	<g>
		<g>
			<path d="M341.563,164.888l-7.526-5.731l-6.308-5.051l-11.646-9.931l-9.979-8.909l-5.054-4.617l-5.046-4.72l-10.066-9.582
			l-9.635-9.401l-0.682-0.676c-4.902-4.862-12.816-4.83-17.678,0.072c-4.86,4.902-4.828,12.816,0.072,17.678l40.851,36.958
			c0.078,0.062,19.825,17.917,19.904,17.978l7.644,5.821c2.264,1.723,4.924,2.556,7.564,2.556c3.77,0,7.493-1.697,9.953-4.927
			C348.116,176.914,347.055,169.07,341.563,164.888z"/>
			<path d="M147.502,320.393l-5.811-5.014l-6.257-5.686l-6.615-6.272l-6.755-6.631l-6.511-6.583l-15.22-16.992l-2.975-3.352
			c-4.585-5.16-12.485-5.629-17.646-1.043c-5.162,4.584-5.63,12.484-1.045,17.646l18.469,20.649c0.139,0.154,0.28,0.305,0.426,0.451
			l6.794,6.871c0.044,0.043,0.087,0.086,0.132,0.129l6.896,6.771c0.052,0.05,0.104,0.101,0.154,0.149l6.789,6.438
			c0.064,0.061,0.13,0.122,0.195,0.182l6.477,5.886c0.08,0.071,0.16,0.144,0.241,0.213l5.934,5.118
			c2.362,2.039,5.268,3.035,8.159,3.035c3.509,0,6.999-1.469,9.471-4.334C153.313,332.795,152.731,324.903,147.502,320.393z"/>
			<path d="M244.897,186.693l-6.613-6.271l-6.617-6.496l-14.109-15.166l-7.803-8.595l-2.926-3.297
			c-4.581-5.163-12.483-5.634-17.646-1.053c-5.163,4.582-5.635,12.483-1.053,17.646l2.975,3.352c0.031,0.035,0.063,0.07,0.095,0.105
			l7.902,8.705c0.034,0.038,0.068,0.076,0.104,0.113l14.351,15.425c0.129,0.138,0.261,0.273,0.395,0.405l6.895,6.77
			c0.052,0.051,0.104,0.101,0.157,0.151l6.791,6.439c0.064,0.061,0.129,0.122,0.194,0.181l6.475,5.883
			c2.396,2.176,5.403,3.249,8.403,3.249c3.399,0,6.789-1.379,9.256-4.094c4.642-5.109,4.264-13.015-0.847-17.657L244.897,186.693z" />
			<path d="M480.255,70.95L462.74,17.375c-1.68-5.14-6.474-8.616-11.881-8.616h-88.098c-6.008,0-11.166,4.274-12.282,10.177
			l-12.328,65.182l-7.604,7.603l-61.514-61.513c-3.219-3.218-7.935-4.434-12.306-3.171l-29.672,8.565
			c-4.126,1.191-7.352,4.417-8.543,8.542l-6.994,24.225l-20.916,9.784c-3.266,1.528-5.713,4.391-6.713,7.855l-6.993,24.225
			l-20.911,9.783c-3.266,1.528-5.713,4.392-6.713,7.855l-6.993,24.224l-20.912,9.784c-3.265,1.528-5.712,4.391-6.712,7.854
			l-6.996,24.224l-20.915,9.787c-3.266,1.528-5.712,4.392-6.712,7.855l-6.977,24.17l-20.439,9.388
			c-3.303,1.52-5.783,4.398-6.791,7.893l-8.566,29.674c-1.048,3.629-0.397,7.539,1.769,10.635l37.003,52.875L3.661,418.608
			c-2.472,2.473-3.796,5.867-3.65,9.359l1.284,30.881c0.271,6.494,5.474,11.699,11.969,11.969l30.883,1.287
			c0.174,0.008,0.348,0.012,0.521,0.012c3.308,0,6.488-1.312,8.838-3.662l72.375-72.373l52.877,37.008
			c3.096,2.168,7.005,2.818,10.637,1.77l29.672-8.57c3.49-1.008,6.371-3.484,7.889-6.787l9.396-20.439l24.171-6.982
			c3.463-1,6.325-3.445,7.853-6.711l9.787-20.911l24.223-6.997c3.463-1,6.325-3.445,7.854-6.711l9.785-20.913l24.225-6.995
			c3.464-1,6.326-3.445,7.854-6.711l9.787-20.914l24.223-6.996c3.463-1,6.325-3.447,7.854-6.711l9.787-20.912l24.223-6.996
			c4.125-1.19,7.35-4.416,8.541-8.541l8.57-29.671c1.264-4.374,0.049-9.089-3.171-12.308l-61.517-61.515l39.457-39.456
			c4.882-4.881,4.882-12.796,0-17.678l-12.422-12.422l0.001-1.92l57.444,16.744c4.45,1.298,9.254,0.024,12.479-3.306
			C480.579,80.197,481.695,75.355,480.255,70.95z M398.431,41.425c-3.777-1.102-7.853-0.359-10.998,2.001
			c-3.147,2.36-5,6.063-5,9.999l-0.002,23.761c0,3.315,1.315,6.495,3.661,8.84l7.243,7.244l-39.456,39.457
			c-2.346,2.344-3.661,5.523-3.661,8.839s1.315,6.495,3.661,8.839l65.138,65.136l-4.608,15.956l-23.046,6.655
			c-3.463,1-6.326,3.446-7.854,6.711l-9.787,20.912l-9.938,2.871c2.855-4.908,2.072-11.308-2.234-15.371l-4.7-4.434l-12.213-11.771
			l-7.961-7.837l-8.021-8.293l-9.6-10.087l-4.729-5.05l-4.607-5.045l-8.913-9.985l-8.108-9.479l-1.919-2.28
			c-4.446-5.283-12.335-5.956-17.612-1.511c-5.281,4.446-5.958,12.332-1.513,17.613l10.24,12.008
			c0.058,0.067,0.115,0.133,0.174,0.199l9.049,10.136c0.03,0.036,0.062,0.071,0.096,0.106l4.712,5.159
			c0.032,0.038,0.068,0.075,0.104,0.113l4.811,5.138c0.023,0.025,0.048,0.05,0.069,0.076l9.673,10.162
			c0.023,0.024,0.048,0.048,0.069,0.072l8.166,8.442c0.07,0.074,0.145,0.146,0.217,0.219l8.12,7.992
			c0.031,0.031,0.063,0.061,0.094,0.09l12.304,11.859c0.032,0.03,0.064,0.062,0.098,0.092l4.75,4.481
			c0.926,0.873,1.949,1.577,3.033,2.114c-2.522,1.247-4.571,3.32-5.781,5.908l-9.786,20.912l-24.226,6.996
			c-0.321,0.092-0.64,0.197-0.95,0.315c-0.294-3.024-1.687-5.952-4.139-8.13l-4.793-4.258l-12.479-11.327l-8.229-7.628
			l-18.354-17.418l-4.763-4.793l-4.744-4.893l-9.163-9.664l-8.357-9.197l-1.874-2.09l-1.766-2.075
			c-4.476-5.258-12.364-5.892-17.621-1.418c-5.257,4.475-5.892,12.364-1.418,17.622l1.869,2.195c0.07,0.082,0.141,0.163,0.213,0.244
			l10.542,11.631c0.06,0.065,0.12,0.131,0.181,0.194l9.305,9.812c0.032,0.035,0.063,0.067,0.096,0.101l4.842,4.993
			c0.035,0.037,0.072,0.074,0.108,0.111l4.938,4.969c0.08,0.082,0.162,0.162,0.245,0.242l18.59,17.643
			c0.029,0.029,0.061,0.058,0.092,0.086l8.315,7.707c0.03,0.029,0.062,0.059,0.096,0.087l12.581,11.421
			c0.032,0.029,0.065,0.061,0.1,0.089l4.843,4.304c2.978,2.646,6.869,3.607,10.505,2.959l-6.451,13.789l-24.224,6.998
			c-3.463,1-6.324,3.446-7.854,6.711l-9.785,20.912l-24.221,6.995c-3.491,1.009-6.371,3.487-7.889,6.79l-9.396,20.438l-18.432,5.324
			l-56.573-39.596c-4.971-3.479-11.717-2.887-16.007,1.402l-75.911,75.91l-13.911-0.58l-0.579-13.91l75.909-75.913
			c4.289-4.289,4.88-11.037,1.402-16.006l-39.589-56.572l5.319-18.433l20.439-9.389c3.304-1.519,5.783-4.399,6.792-7.894
			l6.991-24.222l20.914-9.787c3.265-1.528,5.71-4.391,6.71-7.854l6.997-24.223l20.913-9.784c3.266-1.528,5.713-4.392,6.713-7.855
			l6.992-24.224l20.912-9.783c3.266-1.528,5.713-4.392,6.713-7.855l6.992-24.224l20.916-9.784c3.266-1.527,5.713-4.391,6.713-7.855
			l6.654-23.047l15.954-4.605l65.134,65.134c4.884,4.881,12.796,4.882,17.677,0l19.171-19.167c1.776-1.776,2.978-4.047,3.443-6.516
			l11.121-58.796h68.677l7.338,22.447L398.431,41.425z"/>
			<path d="M200.828,255.838l-5.669-4.888l-6.253-5.683l-6.617-6.275l-6.613-6.496l-14.107-15.159l-7.805-8.598l-2.942-3.308
			c-4.589-5.158-12.488-5.622-17.646-1.033c-5.159,4.588-5.621,12.489-1.034,17.647l2.98,3.35c0.027,0.032,0.056,0.063,0.084,0.094
			l7.901,8.705c0.035,0.038,0.069,0.076,0.105,0.114l14.353,15.424c0.128,0.138,0.259,0.271,0.393,0.404l6.893,6.768
			c0.052,0.052,0.104,0.102,0.157,0.152l6.79,6.439c0.064,0.061,0.129,0.121,0.194,0.182l6.474,5.883
			c0.081,0.072,0.162,0.145,0.244,0.215l5.936,5.119c0.096,0.082,0.193,0.164,0.292,0.244l5.141,4.166
			c2.315,1.877,5.099,2.791,7.863,2.791c3.64,0,7.248-1.582,9.719-4.63c4.346-5.362,3.523-13.233-1.84-17.581L200.828,255.838z"/>
			<path d="M191.888,303.67l-4.971-5.266l-4.902-5.326c-4.677-5.08-12.584-5.406-17.663-0.73c-5.079,4.674-5.406,12.582-0.731,17.662
			l4.957,5.385c0.036,0.039,0.071,0.078,0.107,0.115l5.06,5.36c0.023,0.024,0.047,0.05,0.071,0.075l10.169,10.597
			c0.035,0.037,0.07,0.073,0.106,0.11l9.979,10.146c0.307,0.312,0.625,0.604,0.955,0.877l6.901,6.737
			c0.03,0.028,0.06,0.06,0.092,0.088l12.927,12.363c0.035,0.032,0.068,0.065,0.104,0.098l4.992,4.667
			c2.41,2.253,5.476,3.369,8.533,3.369c3.341,0,6.673-1.331,9.134-3.963c4.715-5.043,4.449-12.953-0.595-17.668l-4.943-4.622
			l-12.826-12.267l-8.493-8.291c-0.095-0.092-0.19-0.184-0.286-0.271l-8.597-8.741L191.888,303.67z"/>
		</g>
	</g>
	<g>
	</g>
	<g>
	</g>
	<g>
	</g>
	<g>
	</g>
	<g>
	</g>
	<g>
	</g>
	<g>
	</g>
	<g>
	</g>
	<g>
	</g>
	<g>
	</g>
	<g>
	</g>
	<g>
	</g>
	<g>
	</g>
	<g>
	</g>
	<g>
	</g>
</svg>
