<?xml version="1.0" encoding="iso-8859-1"?>
<!-- Generator: Adobe Illustrator 19.0.0, SVG Export Plug-In . SVG Version: 6.00 Build 0)  -->
<svg version="1.1" id="Layer_1"
	xmlns="http://www.w3.org/2000/svg"
	xmlns:xlink="http://www.w3.org/1999/xlink" x="0px" y="0px" viewBox="0 0 512 512" style="enable-background:new 0 0 512 512;" xml:space="preserve">
	<g>
		<g>
			<path d="M502.89,206.873l-173.918-81.466V30.69c0-8.735-7.082-15.816-15.816-15.816H66.429c-8.735,0-15.816,7.081-15.816,15.816
			v188.079H15.816C7.081,218.768,0,225.849,0,234.584v246.726c0,8.735,7.081,15.816,15.816,15.816h246.726
			c8.734,0,15.816-7.081,15.816-15.816v-72.227l106.458,49.865c2.17,1.017,4.452,1.498,6.698,1.498
			c5.947,0,11.644-3.37,14.334-9.112l104.655-223.431C514.208,219.992,510.8,210.577,502.89,206.873z M82.245,46.506h215.094v64.085
			l-17.88-8.375c-3.801-1.779-8.148-1.977-12.093-0.549c-3.943,1.428-7.158,4.364-8.938,8.163l-51.026,108.936h-71.384v-54.849
			c0-8.735-7.081-15.816-15.816-15.816s-15.816,7.081-15.816,15.816v54.849H82.245V46.506z M31.632,465.495V250.401h34.797h151.028
			h29.268v133.81v81.284H31.632z M383.91,423.593l-105.552-49.441V234.584c0-8.735-7.082-15.816-15.816-15.816h-20.211
			l38.033-81.197l26.082,12.216c0.006,0.003,0.013,0.005,0.019,0.008l168.683,79.012L383.91,423.593z"/>
		</g>
	</g>
	<g>
		<g>
			<path d="M77.499,285.702c-8.735,0-15.816,7.081-15.816,15.816v68.84c0,8.735,7.081,15.816,15.816,15.816
			s15.816-7.081,15.816-15.816v-68.84C93.315,292.783,86.234,285.702,77.499,285.702z"/>
		</g>
	</g>
	<g>
		<g>
			<path d="M88.679,406.616c-0.728-0.726-1.534-1.39-2.404-1.961c-0.854-0.569-1.771-1.06-2.736-1.455
			c-0.949-0.395-1.945-0.696-2.958-0.901c-2.04-0.411-4.128-0.411-6.168,0c-1.012,0.206-2.009,0.506-2.958,0.901
			c-0.965,0.395-1.882,0.886-2.736,1.455c-0.87,0.569-1.677,1.234-2.404,1.961c-2.942,2.958-4.634,7.022-4.634,11.182
			c0,1.044,0.111,2.072,0.316,3.1c0.19,1.012,0.506,2.009,0.901,2.958s0.886,1.866,1.455,2.736c0.569,0.854,1.234,1.677,1.961,2.404
			c0.728,0.728,1.534,1.392,2.404,1.961c0.854,0.569,1.771,1.06,2.736,1.455c0.949,0.395,1.945,0.696,2.958,0.902
			c1.012,0.206,2.056,0.316,3.084,0.316c1.028,0,2.072-0.111,3.084-0.316c1.012-0.206,2.009-0.506,2.958-0.902
			c0.965-0.395,1.882-0.886,2.736-1.455c0.87-0.569,1.677-1.234,2.404-1.961s1.392-1.55,1.977-2.404
			c0.569-0.87,1.06-1.787,1.455-2.736c0.395-0.949,0.696-1.945,0.901-2.958c0.206-1.028,0.301-2.056,0.301-3.1
			C93.313,413.638,91.621,409.574,88.679,406.616z"/>
		</g>
	</g>
	<g>
		<g>
			<path d="M135.7,113.387c-0.19-1.012-0.506-2.009-0.902-2.958c-0.395-0.965-0.886-1.882-1.455-2.736
			c-0.569-0.87-1.234-1.676-1.961-2.404s-1.534-1.392-2.404-1.961c-0.854-0.569-1.771-1.06-2.72-1.455
			c-0.965-0.395-1.961-0.712-2.973-0.902c-5.124-1.044-10.597,0.648-14.266,4.318c-0.728,0.728-1.392,1.534-1.961,2.404
			c-0.569,0.854-1.06,1.771-1.455,2.736c-0.395,0.949-0.696,1.945-0.901,2.958c-0.206,1.012-0.316,2.056-0.316,3.084
			c0,1.028,0.111,2.072,0.316,3.084c0.206,1.011,0.506,2.009,0.901,2.958c0.395,0.965,0.886,1.882,1.455,2.736
			c0.569,0.87,1.234,1.676,1.961,2.404c2.942,2.942,7.022,4.634,11.182,4.634c1.028,0,2.072-0.111,3.084-0.316
			c1.012-0.19,2.009-0.506,2.973-0.901c0.949-0.395,1.866-0.886,2.72-1.455c0.87-0.569,1.677-1.234,2.404-1.961
			c0.728-0.728,1.392-1.534,1.961-2.404c0.569-0.854,1.06-1.771,1.455-2.736c0.395-0.949,0.712-1.945,0.902-2.958
			c0.206-1.012,0.316-2.056,0.316-3.084S135.906,114.4,135.7,113.387z"/>
		</g>
	</g>
	<g>
	</g>
	<g>
	</g>
	<g>
	</g>
	<g>
	</g>
	<g>
	</g>
	<g>
	</g>
	<g>
	</g>
	<g>
	</g>
	<g>
	</g>
	<g>
	</g>
	<g>
	</g>
	<g>
	</g>
	<g>
	</g>
	<g>
	</g>
	<g>
	</g>
</svg>
