<?xml version="1.0" encoding="iso-8859-1"?>
<!-- Generator: Adobe Illustrator 16.0.0, SVG Export Plug-In . SVG Version: 6.00 Build 0)  -->
<!DOCTYPE svg PUBLIC "-//W3C//DTD SVG 1.1//EN" "http://www.w3.org/Graphics/SVG/1.1/DTD/svg11.dtd">
<svg version="1.1" id="Capa_1"
	xmlns="http://www.w3.org/2000/svg"
	xmlns:xlink="http://www.w3.org/1999/xlink" x="0px" y="0px" width="146.182px" height="146.182px" viewBox="0 0 146.182 146.182" style="enable-background:new 0 0 146.182 146.182;" xml:space="preserve">
	<g>
		<path d="M81.64,133c-6.421,4.402-20.012,7.112-34.327,6.953c-22.786-0.279-37.238-7.233-37.184-11.897l0.165-13.092
		c7.968,5.456,22.621,8.403,37.217,8.573c0.012,0,0.024,0,0.037,0c1.702,0,3.1-1.363,3.118-3.074l0.469-38.43
		c0.006-0.828-0.304-1.619-0.886-2.204c-0.579-0.603-1.364-0.932-2.195-0.943c-22.776-0.274-37.229-7.228-37.174-11.898
		l0.174-14.029c7.971,5.456,22.624,8.412,37.22,8.58c0.487,0.006,0.965,0.006,1.44,0.006c10.62,0,20.603-1.435,28.266-4.089
		c3.267-1.142,5.751-2.384,7.712-3.66l-0.341,27.654c-0.019,1.729,1.363,3.142,3.081,3.16c0.012,0,0.024,0,0.036,0
		c1.699,0,3.1-1.37,3.118-3.081l0.456-37.132l0,0l0,0c0.043-3.617-2.229-8.686-12.488-12.857l0.213-18.033l0,0l0,0
		c0.109-8.61-15.387-13.305-30.75-13.497L48.028,0c-14.41,0-29.961,3.998-30.071,12.748l0,0l-0.219,18.018
		C9.551,33.877,5,38.28,4.929,43.325l0,0L4.643,66.893l0,0c0,0.006,0,0.006,0,0.012L3.894,127.97
		c-0.137,11.594,21.693,17.938,43.337,18.206c0.475,0.006,0.94,0.006,1.416,0.006c15.327,0,29.231-3.057,36.513-8.056
		c1.426-0.975,1.784-2.91,0.805-4.336C85.001,132.39,83.059,132.038,81.64,133z M44.862,85.042l-0.393,32.199
		c-20.977-0.847-34.121-7.374-34.065-11.825l0,0l0.356-28.887C18.161,81.595,31.323,84.517,44.862,85.042z M23.937,33.561
		c0.08-0.387,0.08-0.767,0.012-1.172l0.137-11.356c5.897,3.319,15.269,5.109,24.609,5.228l0.986,0.013
		c8.729,0,17.863-1.48,23.745-4.579l-0.17,13.676c-0.024,2.059-8.403,6.777-24.758,6.583c-7.073-0.086-13.655-1.145-18.557-2.981
		c-4.408-1.644-6.037-3.458-6.031-4.213L23.937,33.561z M48.028,6.245l0.911,0.006c16.279,0.198,24.618,5.124,24.591,7.183
		c-0.024,1.97-8.168,6.597-23.842,6.597l-0.911-0.006c-16.273-0.194-24.612-5.121-24.585-7.185
		C24.217,10.869,32.352,6.245,48.028,6.245z M18.179,37.314c0.95,2.463,3.499,5.237,9.584,7.511
		c5.556,2.076,12.888,3.275,20.658,3.367c0.326,0,0.648,0.006,0.968,0.006c13.405,0,26.674-3.446,29.487-10.169
		c5.035,2.345,6.936,4.777,6.917,6.312l0,0c-0.019,1.769-2.618,4.725-9.874,7.237c-7.346,2.545-17.229,3.86-27.586,3.741
		c-22.783-0.28-37.235-7.23-37.181-11.883C11.183,41.884,13.141,39.528,18.179,37.314z M138.592,79.415
		c1.2,1.23,1.176,3.203-0.055,4.409c-0.608,0.59-1.395,0.889-2.18,0.889c-0.81,0-1.62-0.316-2.229-0.938L119.338,68.61
		l-39.841,38.876l14.79,15.162c1.2,1.23,1.176,3.203-0.055,4.408c-0.608,0.597-1.395,0.889-2.18,0.889
		c-0.81,0-1.626-0.316-2.229-0.943L55.899,92.226c-1.206-1.229-1.179-3.203,0.055-4.408c1.236-1.193,3.206-1.169,4.408,0.061
		l14.791,15.162l39.844-38.879l-14.79-15.15c-1.206-1.236-1.176-3.206,0.055-4.409c1.236-1.196,3.209-1.178,4.408,0.055
		L138.592,79.415z M80.368,129.583l-27.282-27.955c-1.203-1.23-1.178-3.209,0.055-4.409c1.236-1.193,3.206-1.175,4.409,0.062
		l27.283,27.949c1.205,1.236,1.175,3.215-0.055,4.408c-0.609,0.597-1.395,0.889-2.181,0.889
		C81.799,130.527,80.989,130.21,80.368,129.583z M141.345,74.431c-0.604,0.594-1.389,0.886-2.174,0.886
		c-0.816,0-1.626-0.311-2.235-0.935L109.657,46.43c-1.199-1.236-1.175-3.206,0.061-4.409c1.23-1.196,3.209-1.172,4.409,0.055
		l27.279,27.952C142.599,71.258,142.587,73.222,141.345,74.431z M59.397,111.431l11.311,11.594c1.203,1.23,1.178,3.203-0.058,4.409
		c-0.603,0.591-1.392,0.883-2.177,0.883c-0.81,0-1.62-0.311-2.231-0.932l-11.311-11.594c-1.203-1.229-1.178-3.203,0.058-4.409
		C56.215,110.177,58.191,110.202,59.397,111.431z M123.778,48.607c-1.2-1.23-1.176-3.206,0.061-4.402
		c1.23-1.2,3.203-1.179,4.408,0.055l11.314,11.591c1.199,1.236,1.175,3.212-0.062,4.408c-0.603,0.6-1.395,0.892-2.18,0.892
		c-0.81,0-1.62-0.311-2.229-0.941L123.778,48.607z"/>
		<<<<<<< HEAD
</g>
<g>
</g>
<g>
</g>
<g>
</g>
<g>
</g>
<g>
</g>
<g>
</g>
<g>
</g>
<g>
</g>
<g>
</g>
<g>
</g>
<g>
</g>
<g>
</g>
<g>
</g>
<g>
</g>
<g>
</g>
=======
	</g>
<g>
</g>
<g>
</g>
<g>
</g>
<g>
</g>
<g>
</g>
<g>
</g>
<g>
</g>
<g>
</g>
<g>
</g>
<g>
</g>
<g>
</g>
<g>
</g>
<g>
</g>
<g>
</g>
<g>
</g>
>>>>>>> release/1.2.5
</svg>
