<?xml version="1.0" encoding="iso-8859-1"?>
<!-- Generator: Adobe Illustrator 19.0.0, SVG Export Plug-In . SVG Version: 6.00 Build 0)  -->
<svg version="1.1" id="Layer_1" xmlns="http://www.w3.org/2000/svg" xmlns:xlink="http://www.w3.org/1999/xlink" x="0px" y="0px"
	 viewBox="0 0 512 512" style="enable-background:new 0 0 512 512;" xml:space="preserve">
<g>
	<g>
		<path d="M321.164,223.418h-18.618V65.164c0-5.141-4.164-9.309-9.309-9.309h-9.309V9.309c0-5.141-4.164-9.309-9.309-9.309h-37.236
			c-5.145,0-9.309,4.168-9.309,9.309v46.545h-9.309c-5.145,0-9.309,4.168-9.309,9.309v158.255h-18.618
			c-5.145,0-9.309,4.168-9.309,9.309v269.964c0,5.141,4.164,9.309,9.309,9.309h130.327c5.145,0,9.309-4.168,9.309-9.309V232.727
			C330.473,227.586,326.309,223.418,321.164,223.418z M246.691,18.618h18.618v37.236h-18.618V18.618z M228.073,74.473h9.309h37.236
			h9.309v148.945h-55.855V74.473z M311.855,493.382H200.145V242.036h18.618h74.473h18.618V493.382z"/>
	</g>
</g>
<g>
	<g>
		<path d="M256,269.964c-25.664,0-46.545,20.882-46.545,46.545v65.164c0,25.664,20.882,46.545,46.545,46.545
			s46.545-20.882,46.545-46.545v-65.164C302.545,290.846,281.664,269.964,256,269.964z M283.927,381.673
			c0,15.4-12.527,27.927-27.927,27.927s-27.927-12.527-27.927-27.927v-65.164c0-15.4,12.527-27.927,27.927-27.927
			s27.927,12.527,27.927,27.927V381.673z"/>
	</g>
</g>
<g>
</g>
<g>
</g>
<g>
</g>
<g>
</g>
<g>
</g>
<g>
</g>
<g>
</g>
<g>
</g>
<g>
</g>
<g>
</g>
<g>
</g>
<g>
</g>
<g>
</g>
<g>
</g>
<g>
</g>
</svg>
