<?xml version="1.0" encoding="iso-8859-1"?>
<!-- Generator: Adobe Illustrator 18.0.0, SVG Export Plug-In . SVG Version: 6.00 Build 0)  -->
<!DOCTYPE svg PUBLIC "-//W3C//DTD SVG 1.1//EN" "http://www.w3.org/Graphics/SVG/1.1/DTD/svg11.dtd">
<svg version="1.1" id="Capa_1" xmlns="http://www.w3.org/2000/svg" xmlns:xlink="http://www.w3.org/1999/xlink" x="0px" y="0px"
	 viewBox="0 0 297 297" style="enable-background:new 0 0 297 297;" xml:space="preserve">
<path d="M67.723,137.012c-2.791,0-5.441,1.228-7.245,3.357c-1.804,2.13-2.58,4.945-2.121,7.698l23.5,140.998
	c0.763,4.579,4.724,7.935,9.365,7.935h109.666c4.642,0,8.603-3.355,9.366-7.935l23.5-140.998c0.459-2.753-0.317-5.568-2.122-7.698
	c-1.804-2.13-4.453-3.357-7.244-3.357h-4.448c1.584-5.864,1.954-13.162,0.811-18.591l-6.049-28.769
	c-0.586-2.786-0.104-8.319,0.954-10.965l22.434-56.048c1.948-4.868-0.418-10.395-5.287-12.344l-24.021-9.614
	c-4.868-1.946-10.395,0.418-12.344,5.287l-22.435,56.048c-1.058,2.644-4.528,6.982-6.875,8.596l-24.228,16.649
	c-5.492,3.775-11.274,11.004-13.75,17.188l-13.033,32.562H67.723z M157.62,215.344h-40.871l5.034-59.343h31.162L157.62,215.344z
	 M177.407,224.158l-5.413-68.157h41.186L192.844,278.01H99.266L78.931,156.001h23.796l-5.773,68.035
	c-0.226,2.648,0.671,5.27,2.469,7.227c1.799,1.958,4.334,3.071,6.992,3.071h61.478c0.008,0,0.016,0,0.02,0
	C173.157,234.334,177.407,229.401,177.407,224.158z M136.573,137.012l10.209-25.506c1.058-2.644,4.527-6.98,6.875-8.594
	l24.229-16.65c5.491-3.774,11.273-11.004,13.749-17.188l18.906-47.233l6.391,2.559L198.028,71.63
	c-2.477,6.187-3.279,15.41-1.908,21.931l6.048,28.769c0.586,2.786,0.105,8.319-0.953,10.964l-1.488,3.719H136.573z"/>
<g>
</g>
<g>
</g>
<g>
</g>
<g>
</g>
<g>
</g>
<g>
</g>
<g>
</g>
<g>
</g>
<g>
</g>
<g>
</g>
<g>
</g>
<g>
</g>
<g>
</g>
<g>
</g>
<g>
</g>
</svg>
