<?xml version="1.0" encoding="iso-8859-1"?>
<!-- Generator: Adobe Illustrator 18.0.0, SVG Export Plug-In . SVG Version: 6.00 Build 0)  -->
<!DOCTYPE svg PUBLIC "-//W3C//DTD SVG 1.1//EN" "http://www.w3.org/Graphics/SVG/1.1/DTD/svg11.dtd">
<svg version="1.1" id="Capa_1" xmlns="http://www.w3.org/2000/svg" xmlns:xlink="http://www.w3.org/1999/xlink" x="0px" y="0px"
	 viewBox="0 0 57.654 57.654" style="enable-background:new 0 0 57.654 57.654;" xml:space="preserve">
<path d="M47.579,21.833l-0.003-0.451c0-0.029-0.007-0.056-0.008-0.085c-0.005-0.105-0.01-0.208-0.029-0.311
	c-0.027-0.153-0.07-0.301-0.126-0.443c-0.024-0.06-0.053-0.115-0.082-0.173c-0.084-0.171-0.182-0.334-0.307-0.478l-16.73-19.11
	C29.857,0.284,29.231,0,28.572,0c-0.006,0-0.012,0-0.018,0c-0.666,0.005-1.295,0.299-1.726,0.807L10.612,19.914
	c-0.126,0.148-0.223,0.314-0.305,0.488c-0.021,0.044-0.043,0.086-0.062,0.131c-0.059,0.149-0.103,0.305-0.13,0.467
	c-0.016,0.089-0.02,0.177-0.026,0.268c-0.002,0.032-0.009,0.063-0.009,0.095l-0.006,0.454l0.059,0.053
	c0.037,0.173,0.079,0.345,0.157,0.509l16.219,33.975c0.38,0.798,1.166,1.296,2.05,1.302c0.005,0,0.009,0,0.014,0
	c0.877,0,1.663-0.488,2.05-1.276l16.728-33.97c0.083-0.168,0.128-0.346,0.168-0.523L47.579,21.833z M28.571,2
	c0.05,0,0.142,0.013,0.215,0.098l16.617,18.981c-0.503,0.415-1.041,0.809-1.609,1.18c-0.338-0.243-0.716-0.412-1.121-0.475
	c-0.139-1.327-1.119-2.39-2.361-2.577c-0.14-1.326-1.119-2.388-2.361-2.575c-0.14-1.326-1.119-2.388-2.36-2.575
	c-0.14-1.326-1.119-2.388-2.361-2.575c-0.117-1.12-0.829-2.059-1.825-2.43c-0.629-0.912-1.628-1.463-2.699-1.463
	s-2.07,0.551-2.699,1.463c-0.996,0.371-1.708,1.31-1.825,2.43c-1.242,0.188-2.221,1.249-2.361,2.575
	c-1.242,0.188-2.221,1.249-2.36,2.575c-1.242,0.188-2.221,1.249-2.361,2.575c-1.242,0.188-2.222,1.25-2.361,2.577
	c-0.354,0.054-0.691,0.187-0.998,0.379c-0.521-0.347-1.021-0.71-1.486-1.095l4.786-5.64L28.353,2.102
	C28.429,2.012,28.54,1.978,28.571,2z M38.184,24.881c-0.107,0.034-0.215,0.067-0.323,0.101c-0.131,0.04-0.268,0.071-0.401,0.109
	c0.631-1.231,0.446-2.775-0.584-3.805l-2.439-2.439c-0.077-0.077-0.164-0.134-0.246-0.201c0.206-1.05-0.103-2.149-0.886-2.931
	l-2.439-2.439c-1.277-1.277-3.355-1.277-4.632,0l-2.439,2.439c-0.8,0.799-1.102,1.953-0.862,3.027
	c-0.041,0.037-0.088,0.065-0.128,0.104l-2.439,2.439c-0.991,0.991-1.203,2.458-0.657,3.665c-0.076-0.024-0.152-0.047-0.227-0.072
	c-0.643-0.208-1.272-0.434-1.879-0.683c-0.023-0.01-0.046-0.017-0.069-0.027c-0.529-0.219-1.033-0.464-1.531-0.713
	c0.424-0.305,0.721-0.811,0.721-1.348c0-0.514,0.346-0.932,0.771-0.932c0.833,0,1.59-0.783,1.59-1.644
	c0-0.514,0.346-0.932,0.771-0.932c0.833,0,1.59-0.783,1.59-1.644c0-0.514,0.346-0.932,0.771-0.932c0.832,0,1.59-0.783,1.59-1.644
	c0-0.514,0.346-0.932,0.771-0.932c0.833,0,1.59-0.783,1.59-1.644c0-0.457,0.285-0.851,0.664-0.916l0.489-0.085l0.228-0.441
	c0.252-0.486,0.686-0.777,1.16-0.777s0.908,0.291,1.16,0.777l0.228,0.441l0.489,0.085c0.378,0.065,0.664,0.459,0.664,0.916
	c0,0.86,0.758,1.644,1.59,1.644c0.425,0,0.771,0.418,0.771,0.932c0,0.86,0.758,1.644,1.59,1.644c0.425,0,0.771,0.418,0.771,0.932
	c0,0.86,0.758,1.644,1.59,1.644c0.425,0,0.771,0.418,0.771,0.932c0,0.86,0.758,1.644,1.59,1.644c0.425,0,0.771,0.418,0.771,0.932
	c0,0.581,0.347,1.125,0.828,1.419C40.468,24.043,39.358,24.502,38.184,24.881z M21.78,24.504c-0.497-0.497-0.497-1.307,0-1.804
	l2.439-2.439c0.106-0.106,0.232-0.178,0.36-0.24c0.081-0.038,0.166-0.057,0.251-0.077c0.061-0.015,0.122-0.031,0.184-0.036
	c0.075-0.007,0.149-0.004,0.222,0.002c0.082,0.008,0.162,0.024,0.242,0.047c0.057,0.016,0.115,0.031,0.169,0.055
	c0.134,0.062,0.264,0.138,0.375,0.249l1.189,1.19c-0.058,0.066-0.1,0.14-0.151,0.209c-0.01,0.014-0.022,0.026-0.032,0.04
	l-0.003-0.002c-0.005,0.007-0.008,0.015-0.013,0.021c-0.035,0.049-0.07,0.098-0.101,0.148c-0.049,0.078-0.09,0.159-0.131,0.24
	c-0.001,0.001-0.002,0.003-0.003,0.004l0,0c-0.016,0.031-0.029,0.062-0.044,0.092c-0.034,0.072-0.073,0.14-0.101,0.214
	c-0.05,0.128-0.083,0.26-0.116,0.393c-0.016,0.064-0.039,0.126-0.051,0.191c-0.037,0.198-0.057,0.399-0.057,0.601l0,0.001
	c0,0.201,0.021,0.401,0.057,0.599c0.012,0.066,0.036,0.129,0.052,0.194c0.033,0.131,0.066,0.262,0.115,0.389
	c0.029,0.075,0.069,0.146,0.104,0.219c0.053,0.112,0.107,0.223,0.173,0.33c0.047,0.075,0.103,0.145,0.156,0.216
	c0.05,0.067,0.09,0.138,0.146,0.202l-0.485,0.484c-0.025-0.002-0.052-0.001-0.077-0.003c-0.03-0.002-0.06-0.005-0.089-0.007
	c-0.233-0.016-0.464-0.044-0.697-0.065c-0.491-0.046-0.979-0.097-1.461-0.165c-0.229-0.032-0.455-0.068-0.682-0.105
	c-0.231-0.038-0.455-0.088-0.684-0.13L21.78,24.504z M24.848,17.906c0.026-0.288,0.148-0.565,0.36-0.777l2.439-2.439
	c0.497-0.498,1.307-0.498,1.804,0l2.439,2.439c0.209,0.21,0.332,0.479,0.36,0.761c-0.025-0.001-0.049,0.005-0.073,0.004
	c-0.107-0.002-0.212,0.011-0.318,0.02c-0.113,0.009-0.226,0.012-0.336,0.032c-0.085,0.016-0.166,0.046-0.25,0.068
	c-0.126,0.034-0.254,0.062-0.375,0.111c-0.074,0.03-0.142,0.074-0.213,0.11c-0.122,0.06-0.247,0.114-0.362,0.19
	c-0.183,0.12-0.357,0.261-0.518,0.422l-1.184,1.184l-0.417-0.417l-0.766-0.767c-0.157-0.157-0.327-0.294-0.507-0.413
	c-0.58-0.385-1.256-0.557-1.926-0.533C24.952,17.902,24.9,17.902,24.848,17.906z M35.462,24.504l-1.359,1.358
	c-0.104,0.018-0.205,0.042-0.31,0.059c-0.205,0.032-0.411,0.057-0.617,0.086c-0.515,0.071-1.034,0.13-1.558,0.176
	c-0.218,0.019-0.436,0.039-0.653,0.053c-0.144,0.01-0.29,0.009-0.435,0.016l-0.494-0.494h0l-1.255-1.255
	c-0.497-0.497-0.497-1.307,0-1.804l1.255-1.255h0l1.184-1.185c0.113-0.113,0.245-0.192,0.382-0.254
	c0.038-0.017,0.077-0.028,0.116-0.041c0.106-0.035,0.215-0.056,0.325-0.063c0.042-0.002,0.084-0.007,0.127-0.006
	c0.121,0.005,0.239,0.03,0.355,0.069c0.029,0.01,0.06,0.011,0.089,0.023c0.148,0.062,0.289,0.151,0.409,0.272l2.439,2.439
	C35.959,23.197,35.959,24.007,35.462,24.504z M28.831,55.495c-0.065,0.131-0.175,0.159-0.256,0.159c0,0-0.001,0-0.002,0
	c-0.082,0-0.193-0.029-0.257-0.163L13.444,24.339c0.046,0.028,0.097,0.052,0.143,0.08c0.366,0.219,0.74,0.429,1.123,0.631
	c0.205,0.107,0.415,0.209,0.624,0.312c0.438,0.215,0.878,0.426,1.337,0.618c0.076,0.032,0.156,0.059,0.233,0.09
	c1.037,0.424,2.12,0.789,3.245,1.095c0.132,0.036,0.259,0.079,0.391,0.113c0.442,0.114,0.895,0.209,1.349,0.305
	c0.062,0.013,0.122,0.029,0.184,0.042l0.013,0.013l0.299,0.059c0.005,0.001,0.01,0.001,0.014,0.002
	c0.161,0.031,0.325,0.055,0.487,0.084c0.392,0.07,0.785,0.132,1.184,0.188c0.209,0.03,0.415,0.065,0.625,0.091
	c0.009,0.001,0.019,0.001,0.029,0.003c0.24,0.029,0.484,0.044,0.726,0.068c0.316,0.031,0.628,0.067,0.947,0.089
	c0.194,0.014,0.387,0.026,0.581,0.036c0.028,0.001,0.055,0.006,0.082,0.007l0.444,0.022l0.013-0.013
	c0.438,0.017,0.875,0.041,1.317,0.041c0.302,0,0.6-0.02,0.901-0.028l0.018,0.018l0.437-0.018c0.112-0.004,0.224-0.019,0.336-0.025
	c0.242-0.012,0.484-0.024,0.725-0.041c0.275-0.019,0.546-0.047,0.818-0.073c0.209-0.02,0.417-0.037,0.625-0.061
	c0.286-0.033,0.569-0.072,0.852-0.112c0.369-0.051,0.736-0.104,1.099-0.167c0.031-0.006,0.064-0.008,0.095-0.014l0.299-0.053
	c0.211-0.04,0.416-0.093,0.625-0.137c1.717-0.355,3.353-0.842,4.891-1.455c0.102-0.041,0.206-0.077,0.307-0.119
	c0.474-0.196,0.932-0.408,1.385-0.627c0.188-0.091,0.373-0.183,0.558-0.278c0.407-0.21,0.807-0.426,1.194-0.656
	c0.048-0.028,0.1-0.052,0.147-0.081L28.831,55.495z"/>
<g>
</g>
<g>
</g>
<g>
</g>
<g>
</g>
<g>
</g>
<g>
</g>
<g>
</g>
<g>
</g>
<g>
</g>
<g>
</g>
<g>
</g>
<g>
</g>
<g>
</g>
<g>
</g>
<g>
</g>
</svg>
