<?xml version="1.0" encoding="UTF-8" standalone="no"?><!DOCTYPE svg PUBLIC "-//W3C//DTD SVG 1.1//EN" "http://www.w3.org/Graphics/SVG/1.1/DTD/svg11.dtd"><svg width="100%" height="100%" viewBox="0 0 1067 1067" version="1.1" xmlns="http://www.w3.org/2000/svg" xmlns:xlink="http://www.w3.org/1999/xlink" xml:space="preserve" xmlns:serif="http://www.serif.com/" style="fill-rule:evenodd;clip-rule:evenodd;stroke-linecap:round;stroke-linejoin:round;stroke-miterlimit:1.5;"><rect id="Body" x="0" y="0" width="1066.67" height="1066.67" style="fill:none;"/><g id="Body1" serif:id="Body"><path id="Body2" serif:id="Body" d="M533.333,75c183.972,0 333.334,297.039 333.334,550c-0,252.961 -149.362,366.667 -333.334,366.667c-183.971,-0 -333.333,-113.706 -333.333,-366.667c0,-252.961 149.362,-550 333.333,-550Z" style="fill:#01184f;"/><path id="Inside" d="M527.394,296.63c175.59,-217.724 275.841,210.087 275.841,421.398c0,211.31 -124.768,282.744 -278.449,282.744c-153.68,-0 -278.449,-71.434 -278.449,-282.744c0,-211.311 108.337,-635.438 281.057,-421.398Z" style="fill:#e4e8e9;"/><path id="Mouth" d="M533.333,371.608l103.195,53.917l-103.195,53.916l-103.195,-53.916l103.195,-53.917Z" style="fill:#ff9f0a;"/><clipPath id="_clip1"><path d="M533.333,371.608l103.195,53.917l-103.195,53.916l-103.195,-53.916l103.195,-53.917Z"/></clipPath><g clip-path="url(#_clip1)"><circle cx="493.692" cy="394.899" r="14.483" style="fill:#01184f;"/><circle cx="571.828" cy="394.429" r="14.483" style="fill:#01184f;"/><ellipse cx="533.333" cy="424.587" rx="29.349" ry="4.657" style="fill:#ad6800;stroke:#ad6800;stroke-width:2.08px;"/><path d="M431.621,425.415c67.819,6.211 135.854,6.644 204.152,0.086" style="fill:none;stroke:#01184f;stroke-width:8.33px;"/></g><circle id="Left-Iris" serif:id="Left Iris" cx="430.713" cy="331.744" r="46.729" style="fill:#01184f;"/><ellipse id="Left-Iris1" serif:id="Left Iris" cx="442.905" cy="317.518" rx="22.015" ry="21.684" style="fill:#e4e8e9;"/><circle id="Right-Eye" serif:id="Right Eye" cx="633.679" cy="331.729" r="46.729" style="fill:#01184f;"/><ellipse id="Right-Iris" serif:id="Right Iris" cx="646.651" cy="317.518" rx="22.015" ry="21.684" style="fill:#e4e8e9;"/></g></svg>