<?xml version="1.0" encoding="UTF-8" standalone="no"?><!DOCTYPE svg PUBLIC "-//W3C//DTD SVG 1.1//EN" "http://www.w3.org/Graphics/SVG/1.1/DTD/svg11.dtd">
<svg width="100%" height="100%" viewBox="0 0 1067 1067" version="1.1"
    xmlns="http://www.w3.org/2000/svg"
    xmlns:xlink="http://www.w3.org/1999/xlink" xml:space="preserve"
    xmlns:serif="http://www.serif.com/" style="fill-rule:evenodd;clip-rule:evenodd;stroke-linecap:round;stroke-linejoin:round;stroke-miterlimit:1.5;">
    <rect id="Icon" x="0" y="-0" width="1066.67" height="1066.67" style="fill:none;"/>
    <clipPath id="_clip1">
        <rect x="0" y="-0" width="1066.67" height="1066.67"/>
    </clipPath>
    <g clip-path="url(#_clip1)">
        <path d="M1066.67,176.441c-0,-97.381 -79.061,-176.441 -176.441,-176.441l-713.785,-0c-97.381,-0 -176.441,79.06 -176.441,176.441l-0,713.785c-0,97.38 79.06,176.441 176.441,176.441l713.785,-0c97.38,-0 176.441,-79.061 176.441,-176.441l-0,-713.785Z" style="fill:#01184f;"/>
        <clipPath id="_clip2">
            <path d="M1066.67,176.441c-0,-97.381 -79.061,-176.441 -176.441,-176.441l-713.785,-0c-97.381,-0 -176.441,79.06 -176.441,176.441l-0,713.785c-0,97.38 79.06,176.441 176.441,176.441l713.785,-0c97.38,-0 176.441,-79.061 176.441,-176.441l-0,-713.785Z"/>
        </clipPath>
        <g clip-path="url(#_clip2)">
            <g>
                <path id="Body" d="M551.809,-104.569c379.313,-0 687.267,612.435 687.267,1133.99c0,521.556 -307.954,755.994 -687.267,755.994c-379.313,-0 -687.267,-234.438 -687.267,-755.994c0,-521.555 307.954,-1133.99 687.267,-1133.99Z" style="fill:#01184f;"/>
                <path id="Inside" d="M539.563,352.389c362.031,-448.905 568.731,433.157 568.731,868.837c-0,435.679 -257.249,582.962 -574.107,582.962c-316.858,-0 -574.106,-147.283 -574.106,-582.962c-0,-435.68 223.369,-1310.15 579.482,-868.837Z" style="fill:#e4e8e9;"/>
                <path id="Mouth" d="M551.809,506.978l212.768,111.165l-212.768,111.164l-212.768,-111.164l212.768,-111.165Z" style="fill:#ff9f0a;"/>
                <clipPath id="_clip3">
                    <path d="M551.809,506.978l212.768,111.165l-212.768,111.164l-212.768,-111.164l212.768,-111.165Z"/>
                </clipPath>
                <g clip-path="url(#_clip3)">
                    <circle cx="470.077" cy="554.999" r="29.86" style="fill:#01184f;"/>
                    <circle cx="631.178" cy="554.03" r="29.86" style="fill:#01184f;"/>
                    <ellipse cx="551.809" cy="616.209" rx="60.513" ry="9.602" style="fill:#ad6800;stroke:#ad6800;stroke-width:2.08px;"/>
                    <path d="M342.098,617.916c139.83,12.807 280.105,13.699 420.921,0.179" style="fill:none;stroke:#01184f;stroke-width:8.33px;"/>
                </g>
                <circle cx="340.226" cy="424.786" r="96.346" style="fill:#01184f;"/>
                <circle cx="758.702" cy="424.755" r="96.346" style="fill:#01184f;"/>
                <ellipse cx="365.364" cy="395.454" rx="45.39" ry="44.709" style="fill:#e4e8e9;"/>
                <ellipse cx="785.447" cy="395.454" rx="45.39" ry="44.709" style="fill:#e4e8e9;"/>
            </g>
        </g>
    </g>
</svg>